<svg width="221" height="81" viewBox="0 0 221 81" fill="none" xmlns="http://www.w3.org/2000/svg">
<path fill-rule="evenodd" clip-rule="evenodd" d="M24.2989 55.3575L28.8288 36.6348H23.2185L18.7751 55.3575H24.2989Z" fill="#DDDDDD"/>
<path fill-rule="evenodd" clip-rule="evenodd" d="M38.7101 41.6057C44.5891 41.6057 45.6748 45.405 45.0458 48.0427C43.9653 52.6536 38.1673 55.3624 32.3592 55.3624H26.6628L31.0911 36.6396H36.6152L35.4483 41.6107H38.7101V41.6057ZM33.2722 52.1109C36.1788 51.8268 38.71 50.5587 39.2527 48.3927C39.7093 46.313 37.6143 45.3188 36.6201 45.3188H34.6419L33.0035 52.1971L33.2722 52.1109Z" fill="#DDDDDD"/>
<path fill-rule="evenodd" clip-rule="evenodd" d="M53.6436 40.3377L54.4552 36.6348H48.9312L48.1195 40.3377H53.6436ZM50.0269 55.3575L53.3749 41.6059H47.7646L44.5029 55.3575H50.0269Z" fill="#DDDDDD"/>
<path fill-rule="evenodd" clip-rule="evenodd" d="M61.5315 41.6059L62.6119 36.721L56.8191 38.4457L56.0074 41.6059H54.6429L53.9175 44.1421L55.1856 45.4103L53.75 51.477C53.0247 54.551 54.9168 55.3626 58.006 55.3626H60.6235L62.7996 51.6596H60.806C59.4415 51.5582 59.1677 50.9342 59.3554 50.0212L60.806 44.1421H63.7938L64.6052 41.6059H61.5315ZM86.889 40.3377L88.0709 36.6348H81.2636C75.7396 36.6348 73.8475 39.3384 73.4772 40.9769C73.0359 42.7827 74.2027 44.0508 75.4708 45.4052L79.1026 49.2907L79.3716 49.5748C79.4578 49.661 79.5541 49.8437 79.6403 49.9299C79.8229 50.1987 79.9955 50.4726 79.9093 50.8429C79.7267 51.3857 79.0975 51.4669 78.5547 51.5531C78.0119 51.6545 77.3729 51.5531 77.104 51.5531H71.6664L72.1229 55.3524H79.1838C84.7078 55.3524 86.6151 52.6488 86.9702 51.0103C87.3405 49.2045 86.2448 47.9364 84.8904 46.582L81.1722 42.6964C81.086 42.595 80.6295 42.1435 80.5483 42.0573C80.4469 41.7885 80.2795 41.5145 80.3658 41.1443C80.452 40.6015 81.1774 40.4341 81.6339 40.4341C82.2578 40.3326 82.8157 40.3326 83.1708 40.3326H86.889V40.3377ZM112.886 45.4052H115.052L115.863 41.6059H109.984C106.185 41.6059 104.729 43.782 104.547 44.6798C104.278 45.7755 104.729 46.6733 105.541 47.5864L107.362 49.935C107.448 50.1176 107.631 50.29 107.717 50.4777C107.899 50.6603 107.986 50.9342 107.986 51.2031C107.899 51.3857 107.717 51.5582 107.529 51.5582C107.357 51.6596 107.073 51.6596 106.905 51.6596C106.449 51.7459 105.911 51.6596 105.723 51.6596H102.649L103.192 55.3626H109.071C111.79 55.3626 113.784 53.8256 114.154 52.2024C114.423 51.1219 113.971 50.1226 113.241 49.2147L111.247 46.8661L111.161 46.6835C111.095 46.6277 111.06 46.5668 111.06 46.5009C110.973 46.4146 110.887 46.232 110.887 46.0595C111.06 45.4204 111.699 45.4204 112.881 45.4204L112.886 45.4052ZM124.375 41.6059L125.288 37.6341L119.495 38.8007L118.856 41.6059H117.502L116.776 44.1421L118.044 45.324L116.594 51.477C115.868 54.551 117.69 55.3626 120.85 55.3626H123.482L125.562 51.5632H123.655C122.219 51.5632 121.945 50.8531 122.219 50.0263L123.573 44.1472H126.647L127.373 41.6109H124.385L124.375 41.6059ZM167.4 46.6733C168.298 43.2443 167.218 41.6059 162.318 41.6059H144.934L141.586 55.3575H147.11L149.459 45.319H153.258L150.909 55.3575H156.165L158.513 45.319H159.609C162.145 45.4052 162.145 45.9429 161.775 47.7538L159.969 55.3575H165.407L167.4 46.9422V46.6733Z" fill="#DDDDDD"/>
<path fill-rule="evenodd" clip-rule="evenodd" d="M177.54 45.4048H179.706L180.432 41.6055H174.552C170.753 41.6055 169.384 43.7816 169.115 44.6794C168.846 45.7751 169.384 46.6729 170.109 47.586L172.016 49.9346C172.102 50.1172 172.285 50.2897 172.371 50.4773C172.554 50.6599 172.64 50.9339 172.554 51.2027C172.554 51.3853 172.371 51.5578 172.097 51.5578C171.915 51.6592 170.561 51.6592 170.373 51.6592H167.299L167.755 55.3622H173.635C176.353 55.3622 178.433 53.8252 178.803 52.202C179.072 51.1215 178.621 50.1223 177.809 49.2143L175.902 46.8657L175.816 46.6831C175.714 46.6831 175.714 46.5968 175.633 46.5005C175.633 46.4142 175.547 46.2316 175.547 46.0592C175.719 45.42 176.358 45.42 177.54 45.42V45.4048ZM85.8896 60.3434H90.7746C91.4138 60.3434 92.5804 59.8007 93.1232 59.0753L105.17 41.6055H99.0175L94.9441 48.6664L93.676 41.6055H87.5991L90.8608 54.0078L87.4317 58.8927C86.7063 59.7043 86.2499 60.0746 85.8948 60.3434H85.8896Z" fill="#DDDDDD"/>
<path fill-rule="evenodd" clip-rule="evenodd" d="M134.698 51.3857C135.24 51.5582 136.422 51.827 138.416 51.6545H140.308L138.314 55.3575H134.611C128.819 55.185 126.455 50.29 127.18 47.2161C127.906 43.5131 130.356 41.337 136.605 41.337C142.854 41.337 142.839 43.8733 142.215 46.1356C141.403 49.027 138.314 50.2951 134.698 51.1169C134.611 51.1169 134.611 51.2031 134.611 51.2893C134.611 51.3553 134.642 51.3908 134.698 51.3908V51.3857ZM136.148 44.5936C132.704 44.5936 132.161 47.3987 132.517 48.3117C134.241 48.1291 136.772 47.1298 137.143 45.8617C137.315 45.2226 137.411 44.5936 136.148 44.5936ZM186.493 42.874H185.327L184.332 47.8552H182.882L183.962 42.874H182.882L183.064 41.6059H186.681L186.498 42.874H186.493ZM192.286 47.8552H191.018L191.475 44.2385V43.782C191.475 43.6805 191.388 43.9646 191.206 44.2385L189.4 47.8552H188.675L188.406 44.2385C188.406 43.8682 188.406 43.5131 188.406 44.137H188.304C188.304 43.5131 188.304 43.8682 188.218 44.2385L187.137 47.8552H185.869L187.848 41.6059H189.212L189.481 45.2378V45.4103C189.481 45.8668 189.567 45.5929 189.75 45.2378L191.556 41.6059H192.92L192.281 47.8552H192.286ZM28.7272 37.9029H23.1169L18.9475 55.3727H18.8613L23.3909 36.6348H28.7324V37.9029H28.7272ZM189.471 45.4204C189.471 45.7755 189.471 45.6892 189.471 45.4204Z" fill="#DDDDDD"/>
<path fill-rule="evenodd" clip-rule="evenodd" d="M24.2989 55.3572H18.7751L23.3047 36.6345H28.8288L24.2989 55.3572ZM54.4703 37.8062H48.9465L48.2211 39.7997L48.9465 36.5381H54.369L54.4703 37.8062ZM48.3174 39.7997L48.2161 40.3425H48.1297L48.3125 39.7997H48.3174Z" fill="#DDDDDD"/>
<path fill-rule="evenodd" clip-rule="evenodd" d="M53.5576 40.3377H53.1873V41.6059H47.7648L45.4009 51.4719L44.4067 55.3575H44.5893L45.4009 51.4719L47.7648 40.3377H48.1197L48.9314 36.6348H54.3693L53.5576 40.3377Z" fill="#DDDDDD"/>
<path fill-rule="evenodd" clip-rule="evenodd" d="M50.0269 55.3575H44.5029L47.7646 41.6059H53.2886L50.0269 55.3575ZM30.9187 37.9029L26.749 55.3575H26.6628L31.1926 36.6348H36.5339V37.9029H30.9237H30.9187ZM38.7101 41.5196C41.1601 41.5196 42.7834 42.245 43.7776 43.1428C42.7834 42.245 41.1601 41.6059 38.7963 41.6059H35.4483V40.3377H38.4361L38.7051 41.5196H38.7101ZM39.2478 48.0429C38.7912 50.2089 36.26 51.4719 33.2672 51.7459H33.181C36.1688 51.3908 38.705 50.1226 39.2478 47.9465C39.5166 46.8661 39.0651 46.0545 38.4361 45.5979C39.06 46.0545 39.6181 46.8661 39.2478 48.048V48.0429Z" fill="#DDDDDD"/>
<path fill-rule="evenodd" clip-rule="evenodd" d="M36.529 36.6348H31.1875L26.6578 55.3575H32.4506C32.4506 55.3575 43.8535 52.3799 44.9492 47.8552C45.218 46.4045 45.0354 44.5073 43.6811 43.1428C42.6868 42.245 38.6999 40.3377 38.6999 40.3377H35.6108L36.5238 36.6348H36.529ZM35.6361 40.4392L35.4535 41.2508V40.4392H35.6361ZM35.4483 41.7073H35.3621L35.4483 41.2508V41.7073ZM32.9121 52.2988L34.5505 45.5066H36.5441C37.0006 45.5066 37.7108 45.6892 38.3499 46.1458C38.9739 46.6023 39.5317 47.4139 39.2629 48.4944C38.71 50.7567 36.1737 52.0248 33.186 52.2937H32.9173L32.9121 52.2988ZM61.5315 41.7073L62.627 36.7362L56.7327 38.4609L56.0075 41.7073H54.6531L53.9277 44.2436L55.1958 45.5117L53.7451 51.5785C53.0198 54.6524 54.9269 55.464 58.0008 55.464H60.6337L62.7997 51.7611H60.9074C59.4566 51.6748 59.1828 51.0357 59.3705 50.1226L60.8061 44.2436H63.7939L64.6206 41.7073H61.5315ZM83.257 40.4392H86.9752L88.1571 36.7362H81.365C75.7395 36.7362 73.9338 39.4551 73.4773 41.0783C73.1222 42.8841 74.2027 44.1523 75.4709 45.5066L79.1026 49.4074C79.1889 49.4936 79.6454 49.9502 79.7265 50.0313C79.9091 50.3002 79.9956 50.5741 79.9093 50.9444C79.8079 51.4872 79.1839 51.5683 78.6412 51.6698C78.0984 51.756 77.4591 51.6698 77.1041 51.6698H71.6664L72.1229 55.459H79.1839C84.7079 55.459 86.6151 52.7553 87.0564 51.1169C87.4267 49.311 86.2448 48.0429 84.9767 46.6885L81.2584 42.803C81.1722 42.7015 80.7157 42.2602 80.6345 42.1638C80.4519 41.895 80.3658 41.6211 80.452 41.266C80.5382 40.7232 81.1774 40.5406 81.7201 40.5406C82.2629 40.4392 82.9019 40.4392 83.257 40.4392ZM112.957 45.5066H115.133L115.944 41.8037H110.065C106.266 41.8037 104.81 43.8834 104.628 44.7914C104.359 45.8719 104.897 46.7697 105.622 47.6828L107.428 50.1176L107.884 50.5741C107.986 50.7567 108.153 51.0306 108.067 51.2995C107.981 51.5683 107.798 51.6698 107.61 51.756C107.428 51.756 107.154 51.8422 106.986 51.8422C106.53 51.8422 105.992 51.756 105.805 51.756H102.731L103.273 55.459H109.152C111.871 55.459 113.865 53.922 114.321 52.2988C114.59 51.2183 114.053 50.3053 113.327 49.4074L111.42 46.9574L111.247 46.8711C111.247 46.7494 111.212 46.6885 111.146 46.6885C111.06 46.5059 110.973 46.3335 111.06 46.1458C111.146 45.5066 111.785 45.5066 112.952 45.5066H112.957ZM124.461 41.7073L125.455 37.6341L119.576 38.9022L118.937 41.7073H117.669L116.858 44.2436L118.212 45.5117L116.675 51.5785C115.95 54.6524 117.857 55.464 120.931 55.464H123.65L125.729 51.7611H123.837C122.387 51.6748 122.113 51.0357 122.3 50.1226L123.736 44.2436H126.724L127.551 41.7073H124.461ZM167.557 46.8762C168.471 43.3457 167.375 41.7073 162.404 41.7073H145.005L141.657 55.459H147.181L149.631 45.5066H153.431L150.981 55.459H156.322L158.686 45.5066H159.766C162.302 45.5066 162.302 46.0494 161.942 47.8704L160.136 55.459H165.559L167.553 47.0436V46.8711L167.557 46.8762Z" fill="#DDDDDD"/>
<path fill-rule="evenodd" clip-rule="evenodd" d="M177.622 45.4048H179.884L180.609 41.6055H174.715C170.916 41.6055 169.561 43.7816 169.292 44.6794C169.024 45.7751 169.561 46.6729 170.287 47.586L172.179 49.9346C172.28 50.1172 172.448 50.2897 172.549 50.4773C172.721 50.6599 172.818 50.9339 172.721 51.2027C172.721 51.3853 172.549 51.5578 172.366 51.5578C172.098 51.6592 170.743 51.6592 170.561 51.6592H167.487L168.029 55.3622H173.908C176.541 55.3622 178.621 53.8252 178.976 52.202C179.245 51.1215 178.803 50.1223 178.078 49.2143L176.084 46.8657L175.983 46.6831C175.927 46.6273 175.871 46.5664 175.81 46.5005C175.81 46.4142 175.709 46.2316 175.709 46.0592C175.892 45.42 176.536 45.42 177.616 45.42L177.622 45.4048ZM85.8896 60.3434H90.7746C91.5 60.3434 92.6818 59.8007 93.1232 59.0753L105.267 41.6055H99.1037L94.9441 48.6664L93.7622 41.6055H87.5991L90.8608 54.0078L87.5129 58.8927C86.7875 59.7043 86.3309 60.0746 85.8896 60.3434Z" fill="#DDDDDD"/>
<path fill-rule="evenodd" clip-rule="evenodd" d="M134.698 51.2031C134.698 51.2031 134.698 51.1169 134.784 51.1169C138.416 50.29 141.576 48.9407 142.302 46.0494C142.941 43.787 142.941 41.2508 136.691 41.2508C130.442 41.2508 127.992 43.4167 127.266 47.2161C126.556 50.29 128.905 55.0887 134.698 55.3575H138.416L140.496 51.6545H138.502C136.509 51.827 135.342 51.5531 134.784 51.3857C134.728 51.3857 134.698 51.3248 134.698 51.2031ZM137.234 45.7755C136.879 47.1298 134.343 48.1241 132.623 48.3117C132.253 47.3175 132.795 44.5124 136.24 44.5124C137.508 44.5124 137.422 45.1363 137.234 45.7805V45.7755ZM191.749 41.6059L189.943 45.1363C189.857 45.5066 189.674 45.7755 189.674 45.4052C189.674 45.7755 189.674 45.5066 189.674 45.1363L189.491 41.6059H188.041L186.149 47.8552H187.33L188.411 44.137C188.497 43.782 188.593 43.4117 188.593 44.137C188.593 43.782 188.593 43.4117 188.593 44.137L188.949 47.8552H189.674L191.48 44.137C191.581 43.8682 191.662 43.6805 191.749 43.6805C191.749 43.782 191.662 43.9646 191.662 44.137L191.206 47.8552H192.56L193.199 41.6059H191.749ZM186.864 41.6059H183.318L183.146 42.874H184.226L183.146 47.8552H184.596L185.58 42.874H186.676L186.859 41.6059H186.864ZM20.2307 40.3377L21.1439 36.6348H7.18923C6.29139 36.6348 5.2972 37.4464 4.9269 38.9834L0.584778 55.3575H16.9742L17.8874 51.5582H7.83345L8.82765 47.8552H17.4257L18.2374 44.137H9.90829L10.7197 40.3377H20.2307Z" fill="#DDDDDD"/>
<path fill-rule="evenodd" clip-rule="evenodd" d="M39.5217 59.1616L13.7075 71.6502L96.8414 71.564C106.266 71.564 110.425 60.3435 126.1 60.3435H214.94L151.726 3.42456L91.5863 32.8402H86.7013L152.081 0.71582L220.819 62.8747H207.509L214.758 69.1088H125.643C113.596 69.1088 108.985 80.4257 97.0239 80.4257H6.91531L20.5961 74.0901H3.75513L34.0789 59.1565H39.5165L39.5217 59.1616Z" fill="#DDDDDD"/>
</svg>
