<svg width="151" height="66" viewBox="0 0 151 66" fill="none" xmlns="http://www.w3.org/2000/svg">
<path fill-rule="evenodd" clip-rule="evenodd" d="M54.8716 32.5752C54.8716 44.5261 45.1883 54.2247 33.2323 54.2247V43.4C39.2027 43.4 44.0469 38.5557 44.057 32.5752H22.4175C22.4175 26.5946 27.262 21.7402 33.2323 21.7402C39.2027 21.7402 44.057 26.5946 44.057 32.5752H54.8716ZM33.2323 54.2197V65.0445C15.3111 65.0445 0.783203 50.5066 0.783203 32.5752C0.783203 14.6437 15.3111 0.0957031 33.2323 0.0957031V10.9205C21.2814 10.9205 11.5928 20.6141 11.5928 32.5752C11.5928 44.5362 21.2764 54.2247 33.2323 54.2247V54.2197ZM59.5181 21.7402H69.582V54.2197H59.5181V21.7402ZM75.5523 10.9154H85.6164V54.2197H75.5523V10.9154ZM119.648 21.7402H128.535V54.2197H119.648V50.1363C116.584 53.1392 112.394 54.9907 107.763 54.9907C98.3686 54.9907 90.765 47.3768 90.765 37.9825C90.765 28.5881 98.3686 20.9743 107.763 20.9743C112.394 20.9743 116.584 22.8207 119.648 25.8287V21.7453V21.7402ZM115.377 37.9774C115.377 33.7571 111.973 30.3534 107.763 30.3534C103.553 30.3534 100.139 33.7571 100.139 37.9774C100.139 42.1978 103.543 45.6014 107.763 45.6014C111.983 45.6014 115.377 42.1876 115.377 37.9774ZM144.397 30.6273V37.9774C144.397 41.934 146.456 45.1551 150.134 45.1551V54.9856C141.419 54.9856 134.358 47.3717 134.358 37.9774V10.9154H144.392V21.7402H150.129V30.6273H144.392H144.397Z" fill="white"/>
</svg>
