<svg width="247" height="33" viewBox="0 0 247 33" fill="none" xmlns="http://www.w3.org/2000/svg">
<path d="M77.6227 22.0061V1.21191H73.1409V21.881C73.1409 25.5344 71.1502 28.4011 67.3299 28.4011C63.5096 28.4011 61.519 25.5344 61.519 21.881V1.21191H57.0371V22.0061C57.0371 24.998 57.8656 27.8588 60.1483 29.8911C62.0971 31.6374 64.7135 32.5075 67.3299 32.5075C69.9463 32.5075 72.5628 31.6374 74.5117 29.8911C76.7943 27.8588 77.6227 24.9921 77.6227 22.0061Z" fill="white"/>
<path d="M219.29 1.21103H209.325V31.9285H219.123C223.73 31.9285 227.759 30.8081 231.12 27.4884C233.695 24.9137 234.982 20.2232 234.982 16.6532C234.982 13.0832 233.82 9.63837 231.83 6.85508C228.885 2.70101 224.237 1.21103 219.296 1.21103H219.29ZM219.165 27.8162H213.813V5.31742H219.248C223.981 5.31742 227.759 7.51664 229.583 11.9568C230.161 13.4527 230.495 15.0679 230.495 16.6473C230.495 23.7455 226.138 27.8162 219.165 27.8162ZM195.963 1.21103H191.481V31.9285H206.631V27.8162H195.963V1.21103ZM48.6868 27.2738C51.0946 23.9959 52.4654 20.7179 52.4654 16.5638C52.4654 7.76695 45.4923 0.626953 36.6478 0.626953C27.8032 0.626953 20.8301 7.60008 20.8301 16.4804C20.8301 25.3607 27.7615 32.5007 36.6061 32.5007C39.6754 32.5007 42.709 31.6305 45.4029 30.1346C47.9359 31.7557 50.0517 32.459 53.121 32.5007V28.3466C51.3748 28.3883 50.1768 28.138 48.6809 27.2679L48.6868 27.2738ZM36.7729 28.3943C33.1194 28.3943 29.7164 26.5706 27.6006 23.6204C28.8045 23.0423 29.7998 22.9171 31.1706 22.9171C35.1161 22.9171 38.3523 24.7408 41.4217 27.0295C39.9674 28.0665 38.5549 28.4003 36.7729 28.4003V28.3943ZM45.0334 24.5799C41.2131 21.4688 36.6478 18.8107 31.5818 18.8107C29.5912 18.8107 27.5946 19.0193 25.7292 19.7643C25.4789 18.769 25.3119 17.8154 25.3119 16.7784C25.3119 10.3834 30.1276 4.73931 36.7252 4.73931C43.3229 4.73931 47.9716 10.3416 47.9716 16.5698C47.9716 19.7643 46.9764 22.1721 45.0275 24.5799H45.0334ZM169.316 31.9226H185.879V27.8102H173.798V18.471H185.879V14.3586H173.798V5.31146H185.879V1.19911H169.316V31.9166V31.9226ZM159.059 31.9226H163.541V1.20507H159.059V31.9226ZM148.391 14.448H135.732V1.20507H131.25V31.9226H135.732V18.5544H148.391V31.9226H152.872V1.20507H148.391V14.448ZM113.525 8.92914C113.525 6.68821 115.39 4.73931 117.637 4.73931C120.295 4.73931 121.952 6.52133 121.952 9.17946H126.434C126.434 3.98836 122.739 0.626953 117.637 0.626953C112.947 0.626953 109.043 4.19695 109.043 8.97086C109.043 14.9487 112.863 16.3612 117.637 18.1849C120.212 19.1802 122.578 19.9312 122.578 23.2091C122.578 26.1951 120.713 28.4003 117.637 28.4003C114.401 28.4003 112.655 25.8256 112.655 22.8396H108.173C108.173 28.4002 112.035 32.5126 117.637 32.5126C123.24 32.5126 127.06 28.734 127.06 23.2151C127.06 11.5515 113.525 15.4553 113.525 8.9351V8.92914ZM91.2348 1.21103L79.5712 31.9285H84.3034L87.7065 22.8813H98.7502L102.153 31.9285H106.927L95.2637 1.21103H91.2407H91.2348ZM89.2859 18.769L93.2314 7.02196H93.3148L97.2186 18.769H89.2918H89.2859ZM0.369629 31.9226H16.9323V27.8102H4.85151V18.471H16.9323V14.3586H4.85151V5.31146H16.9323V1.19911H0.369629V31.9166V31.9226ZM244.25 4.78103C244.25 4.27443 244.054 3.893 243.666 3.63076C243.273 3.37448 242.689 3.24336 241.914 3.24336H239.804V8.83974H240.859V6.45577H241.896L243.034 8.83974H244.22L242.969 6.28889C243.374 6.21141 243.69 6.03857 243.91 5.77038C244.131 5.50814 244.244 5.18034 244.244 4.78103H244.25ZM242.838 5.5737C242.617 5.71078 242.254 5.7823 241.753 5.7823H240.859V3.92876H241.723C242.23 3.92876 242.593 4.00028 242.82 4.15523C243.046 4.31019 243.165 4.54859 243.165 4.88831C243.165 5.19822 243.052 5.4247 242.838 5.56774V5.5737ZM246.36 4.26847C246.116 3.67248 245.764 3.13608 245.305 2.67121C244.834 2.19441 244.304 1.83086 243.696 1.58054C243.094 1.33022 242.456 1.20507 241.783 1.20507C241.109 1.20507 240.489 1.32427 239.905 1.56266C239.321 1.80106 238.803 2.14674 238.356 2.60565C237.873 3.08841 237.504 3.64268 237.247 4.25059C236.991 4.85851 236.86 5.49026 236.86 6.13989C236.86 6.78953 236.985 7.40936 237.229 7.99939C237.474 8.58942 237.831 9.12582 238.302 9.59665C238.773 10.0794 239.309 10.4489 239.905 10.6992C240.501 10.9496 241.127 11.0807 241.783 11.0807C242.438 11.0807 243.052 10.9555 243.654 10.6992C244.256 10.4489 244.804 10.0854 245.293 9.60858C245.764 9.15562 246.122 8.63114 246.366 8.04111C246.61 7.45108 246.735 6.81932 246.735 6.14585C246.735 5.47238 246.616 4.87043 246.366 4.27443L246.36 4.26847ZM245.764 7.80867C245.55 8.32123 245.24 8.77419 244.84 9.16754C244.411 9.57878 243.934 9.88869 243.416 10.1033C242.891 10.3178 242.343 10.4251 241.759 10.4251C241.175 10.4251 240.668 10.3178 240.15 10.0973C239.625 9.87677 239.166 9.56089 238.767 9.14966C238.362 8.73842 238.046 8.27951 237.831 7.76099C237.617 7.24844 237.504 6.71204 237.504 6.15181C237.504 5.59158 237.617 5.04326 237.843 4.51283C238.07 3.98239 238.392 3.5056 238.815 3.08245C239.202 2.68909 239.649 2.39109 240.162 2.18249C240.674 1.9739 241.223 1.87258 241.807 1.87258C242.391 1.87258 242.951 1.97986 243.469 2.19441C243.988 2.40897 244.459 2.72485 244.87 3.14204C245.269 3.54136 245.573 4.00028 245.782 4.51879C245.99 5.04326 246.092 5.59754 246.092 6.19353C246.092 6.78952 245.985 7.30208 245.77 7.81463L245.764 7.80867Z" fill="white"/>
</svg>
