<svg width="206" height="47" viewBox="0 0 206 47" fill="none" xmlns="http://www.w3.org/2000/svg">
<path fill-rule="evenodd" clip-rule="evenodd" d="M99.8557 46.3139L119.801 3.62849C119.999 3.19733 120.262 2.78646 120.577 2.43138C120.891 2.0763 121.247 1.7618 121.652 1.49803C122.058 1.23426 122.494 1.03643 122.951 0.909617C123.407 0.782803 123.884 0.701641 124.371 0.711786C124.843 0.696569 125.315 0.777731 125.776 0.909617C126.238 1.0415 126.669 1.23933 127.075 1.49803C127.481 1.7618 127.851 2.0763 128.15 2.43138C128.465 2.78646 128.729 3.19226 128.926 3.62849L148.872 46.3139H144.58L125.396 5.29736C125.213 4.89156 124.807 4.643 124.371 4.65315C124.26 4.65315 124.148 4.66837 124.041 4.69373C123.945 4.71909 123.849 4.76474 123.752 4.82561C123.666 4.87634 123.585 4.94735 123.514 5.03359C123.433 5.11475 123.372 5.20098 123.331 5.29736L104.177 46.3139H99.8557ZM61.6493 42.4385C61.492 42.4385 61.3348 42.4131 61.1877 42.3472C61.0457 42.2964 60.924 42.2051 60.8073 42.0986C60.7008 41.9819 60.6247 41.8501 60.5587 41.703C60.508 41.5711 60.4775 41.4138 60.4775 41.2566V0.742222H56.592V41.2616C56.592 41.5964 56.6224 41.9211 56.6832 42.2457C56.7441 42.5704 56.8405 42.8849 56.9724 43.1892C57.0942 43.4936 57.2463 43.7878 57.434 44.0668C57.6217 44.3458 57.8296 44.5994 58.063 44.8276C58.3014 45.0661 58.555 45.274 58.8238 45.4566C59.1028 45.6392 59.397 45.7965 59.7014 45.9284C60.0057 46.0603 60.3254 46.1566 60.6449 46.2175C60.9797 46.2784 61.3094 46.3088 61.6442 46.3088H92.4446V42.4334C92.4446 42.4334 61.629 42.4334 61.6442 42.4334L61.6493 42.4385ZM41.5215 46.3139H46.5483L27.1966 21.6157L43.5556 0.73715H38.62L6.19119 42.1493C6.13032 42.2356 6.04918 42.3167 5.9528 42.3878C5.86657 42.4486 5.76519 42.4993 5.64852 42.5298C5.542 42.5551 5.4354 42.5653 5.31873 42.5551C5.20714 42.5551 5.09559 42.5349 4.98907 42.4892C4.88254 42.4537 4.78613 42.403 4.6999 42.332C4.61366 42.2711 4.53761 42.1899 4.47674 42.0935C4.40572 42.0073 4.36005 41.9109 4.33469 41.8044C4.29918 41.6979 4.28391 41.5914 4.28391 41.4747V0.742222H0.408551V41.4848C0.393333 41.9972 0.474464 42.5095 0.631713 43.0066C0.773744 43.4936 1.0122 43.9501 1.31655 44.3711C1.60569 44.7921 1.97084 45.1574 2.38171 45.4617C2.80273 45.7661 3.25936 45.9994 3.74632 46.1566C4.27386 46.3393 4.82169 46.4306 5.38982 46.4306C5.76518 46.4306 6.13544 46.39 6.49052 46.3139C6.85574 46.2277 7.20578 46.1009 7.54057 45.9335C7.87536 45.7661 8.1847 45.5682 8.47384 45.345C8.76297 45.1066 9.02168 44.8429 9.24995 44.5436L24.7313 24.7556L41.5266 46.3139H41.5215Z" fill="white"/>
<path fill-rule="evenodd" clip-rule="evenodd" d="M160.289 0.736328V46.308H205.968V0.736328H160.289ZM202.544 25.6678H185.277V42.8942H180.985V25.6678H163.718V21.3765H180.985V4.15015H185.277V21.3765H202.544V25.6678Z" fill="white"/>
</svg>
