<svg width="228" height="39" viewBox="0 0 228 39" fill="none" xmlns="http://www.w3.org/2000/svg">
<path d="M49.4817 38.5984C49.0708 38.3346 48.589 38.3651 48.1375 38.3042C46.6107 38.0861 45.1447 37.6904 43.7548 37.0158C40.5642 35.4636 38.4287 32.9628 37.2265 29.6454C36.6584 28.078 36.3388 26.4497 36.2475 24.7859C36.1968 23.8525 36.1714 22.9192 36.1714 21.9859C36.1714 16.8271 36.1714 11.6683 36.1765 6.50954C36.1765 4.90155 36.1815 3.29355 36.1917 1.68556C36.1917 1.55875 36.212 1.43193 36.2221 1.26454C36.354 1.22903 36.4707 1.17323 36.5873 1.16816C37.9874 1.16309 39.3874 1.16309 40.7874 1.16816C40.9091 1.16816 41.0309 1.21888 41.2033 1.25439C41.2033 1.55367 41.2135 1.83266 41.2135 2.11672C41.2135 9.0661 41.2135 16.0155 41.2135 22.9598C41.2135 24.1569 41.2896 25.3439 41.5483 26.5106C41.7715 27.5301 42.1215 28.499 42.6287 29.412C43.7041 31.3345 45.2969 32.6433 47.3969 33.2773C49.71 33.9723 52.0535 33.9925 54.3717 33.3128C56.9485 32.557 58.734 30.9084 59.7536 28.4229C60.337 26.9874 60.5804 25.4859 60.6616 23.9489C60.6768 23.6649 60.6717 23.3808 60.6717 23.0917C60.6717 16.0155 60.6768 8.93421 60.6819 1.85802C60.6819 1.65512 60.7022 1.45222 60.7174 1.23917C60.8442 1.20874 60.9456 1.16309 61.042 1.16309C62.5181 1.16309 63.9993 1.16309 65.4754 1.16816C65.5465 1.16816 65.6175 1.21889 65.7088 1.25947C65.8102 1.55367 65.7696 1.86817 65.7696 2.17252C65.7696 7.92985 65.7696 13.6821 65.7696 19.4394C65.7696 20.6568 65.7848 21.8743 65.7696 23.0967C65.7392 25.1511 65.5211 27.1852 64.8769 29.1483C64.045 31.6998 62.6703 33.8809 60.5398 35.5498C58.8558 36.8687 56.9485 37.7006 54.8536 38.1165C54.2702 38.2332 53.6767 38.3042 53.0934 38.4107C52.9209 38.4412 52.7586 38.5223 52.5912 38.5832H49.4817V38.5984Z" fill="white"/>
<path d="M213.949 38.5988C213.533 38.3502 213.056 38.3705 212.599 38.2944C209.926 37.8582 207.446 36.9401 205.214 35.3879C205.021 35.256 204.843 35.1089 204.646 34.9618V30.3103C204.879 30.1987 205.001 30.3711 205.138 30.4675C206.213 31.1979 207.314 31.8726 208.496 32.4204C210.545 33.3741 212.685 33.927 214.953 33.9067C216.175 33.8965 217.378 33.7088 218.539 33.303C219.305 33.0342 220.01 32.6588 220.624 32.1211C222.176 30.7617 222.638 29.037 222.288 27.0588C222.151 26.2776 221.735 25.6131 221.167 25.05C220.685 24.5732 220.147 24.1674 219.559 23.8377C218.95 23.4978 218.326 23.1732 217.692 22.8841C216.094 22.1435 214.481 21.4333 212.878 20.7029C211.483 20.0637 210.164 19.2927 208.998 18.2883C207.633 17.1166 206.563 15.7267 206.02 13.997C205.102 11.0701 205.523 8.30558 207.207 5.7541C208.648 3.57291 210.697 2.16274 213.132 1.30548C214.988 0.651126 216.911 0.448224 218.874 0.58011C221.106 0.727213 223.211 1.30548 225.194 2.33013C225.605 2.54318 225.996 2.79681 226.361 3.00985C226.452 3.74537 226.452 6.86498 226.361 7.54977C226.168 7.45847 225.981 7.39253 225.808 7.29108C224.474 6.5302 223.074 5.92149 221.578 5.55627C219.32 5.00843 217.068 4.94756 214.821 5.61714C214.146 5.82004 213.517 6.11932 212.929 6.50483C210.276 8.25993 209.825 12.3636 212.427 14.5702C213.223 15.2499 214.116 15.7673 215.064 16.1985C216.759 16.9746 218.458 17.7506 220.147 18.5318C221.278 19.0543 222.369 19.6478 223.394 20.3579C224.251 20.9514 225.037 21.621 225.717 22.4123C226.331 23.1275 226.797 23.9341 227.107 24.8218C227.208 25.1109 227.249 25.4254 227.325 25.7247C227.36 25.8718 227.421 26.0087 227.472 26.1508V29.5747C227.426 29.6914 227.345 29.803 227.335 29.9197C227.305 30.366 227.173 30.782 227.026 31.1929C226.249 33.3335 224.875 35.0023 222.993 36.2553C221.36 37.3459 219.549 38.0002 217.606 38.2995C217.205 38.3604 216.779 38.3502 216.424 38.5937H213.933L213.949 38.5988Z" fill="white"/>
<path d="M79.3996 37.7667C78.517 37.8833 75.0829 37.8732 74.4488 37.7515C74.4032 25.6129 74.388 13.4641 74.4488 1.31542C74.6619 1.08715 74.9358 1.16831 75.1793 1.16831C76.9141 1.16324 78.654 1.16831 80.3888 1.16831C81.0583 1.16831 81.733 1.16831 82.362 1.16831C82.6511 1.40165 82.6917 1.69586 82.7931 1.95456C84.391 6.11404 85.9888 10.2735 87.5867 14.433C89.7577 20.0939 91.9288 25.7498 94.0998 31.4108C94.2013 31.6695 94.2571 31.9535 94.4651 32.192C94.668 32.0499 94.7085 31.8521 94.7795 31.6695C95.8042 28.9861 96.8339 26.2977 97.8586 23.6143C100.603 16.4265 103.347 9.23872 106.091 2.05601C106.203 1.76687 106.269 1.46252 106.507 1.18353C108.957 1.18353 111.417 1.18353 113.878 1.18353C113.974 1.18353 114.076 1.22918 114.207 1.26469C114.238 13.4286 114.248 25.5774 114.207 37.7565C114.101 37.787 114.004 37.8428 113.913 37.8428C112.437 37.8428 110.956 37.8428 109.48 37.8428C109.429 37.8428 109.383 37.8174 109.287 37.792C109.267 37.6652 109.226 37.5181 109.221 37.3761C109.211 37.1427 109.221 36.9094 109.221 36.6761C109.221 27.1093 109.221 17.5425 109.221 7.98073V7.06767C109.013 6.96622 108.973 7.09811 108.927 7.21478C108.526 8.25465 108.125 9.29452 107.73 10.3344C104.336 19.2113 100.943 28.0933 97.5441 36.9703C97.4426 37.2341 97.331 37.4978 97.2296 37.7515C96.6615 37.8833 93.131 37.929 91.7107 37.8225C91.4773 37.6652 91.452 37.3862 91.3607 37.1529C89.3824 32.0296 87.4092 26.9064 85.4359 21.7831C83.5845 16.9743 81.7279 12.1656 79.8714 7.35681C79.7801 7.12347 79.7243 6.87492 79.567 6.69231C79.3793 6.74303 79.4098 6.86477 79.4047 6.95608C79.3996 7.21478 79.4047 7.47348 79.4047 7.73218C79.4047 17.4004 79.4047 27.0687 79.4047 36.742C79.4047 37.0768 79.4047 37.4116 79.4047 37.7819L79.3996 37.7667Z" fill="white"/>
<path d="M154.006 1.22378C154.646 1.1274 160.296 1.10203 161.356 1.18827C161.595 1.34552 161.686 1.62451 161.823 1.86799C164.05 5.81949 166.267 9.771 168.488 13.7276C171.765 19.5559 175.037 25.3843 178.314 31.2126C178.446 31.446 178.512 31.7402 178.765 31.8619C178.938 31.796 178.907 31.6793 178.913 31.5829C178.923 31.4003 178.913 31.2177 178.913 31.0401C178.913 21.3719 178.913 11.6986 178.913 2.03031C178.913 1.77161 178.913 1.51798 178.913 1.24914C179.491 1.05131 180.039 1.16291 180.571 1.14769C181.114 1.1274 181.662 1.13754 182.205 1.14769C182.742 1.15276 183.285 1.11725 183.863 1.1832C183.889 1.36581 183.919 1.51291 183.924 1.66001C183.934 1.86799 183.924 2.07596 183.924 2.28394C183.924 13.7682 183.924 25.2524 183.924 36.7366V37.7258C183.808 37.7765 183.737 37.8323 183.671 37.8323C181.337 37.8323 179.004 37.8323 176.686 37.8323C176.412 37.6649 176.326 37.3808 176.189 37.1373C173.673 32.6634 171.162 28.1894 168.651 23.7154C165.633 18.3385 162.614 12.9566 159.596 7.57967C159.459 7.33618 159.358 7.06734 159.079 6.83908C159.033 6.97096 158.977 7.05212 158.972 7.13836C158.957 7.42242 158.962 7.70648 158.962 7.99561C158.962 17.6131 158.962 27.2307 158.962 36.8482C158.962 37.1526 159.013 37.4671 158.901 37.7562C158.303 37.8729 154.853 37.8881 154.037 37.7714C154.022 37.5634 153.986 37.3402 153.986 37.112C153.981 33.9518 153.976 30.7865 153.976 27.6263C153.976 20.0835 153.981 12.5406 153.976 4.99267C153.976 3.80062 153.951 2.60858 153.94 1.41653C153.94 1.36581 153.966 1.32015 153.996 1.22378H154.006Z" fill="white"/>
<path d="M123.739 1.28464C123.861 1.23391 123.932 1.18319 124.003 1.18319C131.652 1.17304 139.301 1.16797 146.951 1.16797C147.103 1.16797 147.255 1.19333 147.428 1.20855C147.575 1.57884 147.493 1.94407 147.509 2.29407C147.524 2.65422 147.509 3.01944 147.509 3.38467C147.509 3.74989 147.509 4.11004 147.509 4.47526C147.509 4.83034 147.534 5.19049 147.468 5.59122C146.408 5.65716 145.373 5.59122 144.348 5.60644C143.339 5.62166 142.325 5.62165 141.315 5.62673C140.28 5.6318 139.24 5.63687 138.206 5.63687C137.171 5.63687 136.131 5.63687 135.096 5.63687C134.061 5.63687 133.072 5.63687 132.063 5.63687C131.028 5.63687 129.998 5.63687 128.963 5.63687C128.781 5.9463 128.842 6.23543 128.842 6.50935C128.842 9.20794 128.842 11.9015 128.842 14.6C128.842 15.224 128.842 15.8428 128.842 16.4667C128.842 16.6443 128.862 16.8218 128.877 17.0501C129.095 17.0704 129.293 17.111 129.491 17.111C134.264 17.1008 139.032 17.0856 143.806 17.0754C144.171 17.0754 144.531 17.0653 144.896 17.0754C144.993 17.0754 145.089 17.1211 145.18 17.1414C145.307 17.7907 145.307 20.7784 145.18 21.4429C144.42 21.5342 143.643 21.4784 142.872 21.4987C142.096 21.5241 141.315 21.5241 140.539 21.5291C139.763 21.5342 138.982 21.5342 138.206 21.5342C137.455 21.5342 136.699 21.5342 135.948 21.5342H133.615C132.839 21.5342 132.058 21.5342 131.282 21.5342C130.506 21.5342 129.735 21.5139 128.943 21.5545C128.796 21.8588 128.847 22.148 128.847 22.4219C128.847 25.7647 128.847 29.1126 128.847 32.4554C128.847 32.709 128.847 32.9677 128.847 33.2619C129.035 33.2974 129.177 33.338 129.324 33.3481C129.532 33.3634 129.74 33.3532 129.948 33.3532C132.464 33.3532 134.98 33.3431 137.495 33.3532C140.762 33.3684 144.029 33.3989 147.296 33.4293C147.448 33.4293 147.6 33.4445 147.757 33.4547C147.798 33.5409 147.859 33.6068 147.859 33.6728C147.864 35.017 147.859 36.3663 147.859 37.746C147.696 37.7765 147.554 37.8221 147.407 37.8323C147.225 37.8475 147.042 37.8323 146.864 37.8323C139.499 37.8323 132.134 37.8323 124.774 37.8323C124.464 37.8323 124.16 37.8221 123.82 37.817C123.789 37.6294 123.759 37.4823 123.744 37.3352C123.734 37.2337 123.744 37.1272 123.744 37.0257C123.744 28.0829 123.744 19.1349 123.744 10.192C123.744 7.52386 123.744 4.85063 123.744 2.18248C123.744 1.87812 123.754 1.5687 123.759 1.27956L123.739 1.28464Z" fill="white"/>
<path d="M10.0022 2.49228V1.22922C10.1899 1.19879 10.3624 1.14806 10.5349 1.14806C11.5189 1.13792 12.5081 1.14806 13.4921 1.14806C16.7335 1.14806 19.9749 1.14806 23.2162 1.14806C23.4952 1.14806 23.7793 1.16328 24.0735 1.17343C24.2409 1.60966 24.1698 2.01547 24.1495 2.472C23.8959 2.53287 23.6525 2.60895 23.4039 2.64953C21.4916 2.9691 20.1321 4.01405 19.3408 5.77929C19.0973 6.32205 18.8843 6.8851 18.7169 7.45323C16.1197 16.3048 13.5327 25.1564 10.9458 34.008C10.8544 34.3225 10.6921 34.6319 10.7479 35.0174C11.0015 35.0275 11.2298 35.0478 11.4581 35.0478C14.3088 35.0478 17.1647 35.0428 20.0154 35.0478C22.435 35.058 24.3068 34.0181 25.6967 32.0804C26.5894 30.8376 27.1068 29.4325 27.3808 27.9361C27.4822 27.3782 27.5279 26.805 27.5887 26.2419C27.6243 25.9376 27.6395 25.6281 27.6699 25.3136C27.817 25.2832 27.9134 25.2477 28.0148 25.2477C28.4511 25.2426 28.8924 25.2477 29.3692 25.2477C29.4098 25.4252 29.4554 25.5673 29.4757 25.7144C29.4909 25.8665 29.4808 26.0238 29.4808 26.181C29.4808 29.7572 29.4808 33.3384 29.4808 36.9145C29.4808 37.1935 29.4656 37.4725 29.4554 37.787C29.2627 37.8124 29.1156 37.8479 28.9634 37.8479C28.4713 37.8529 27.9793 37.8479 27.4873 37.8479C18.9553 37.8479 10.4233 37.8479 1.89125 37.8479C1.5869 37.8479 1.27747 37.8327 0.937612 37.8225C0.841234 37.3761 0.856467 36.9754 0.92241 36.529C1.07966 36.4732 1.24704 36.4123 1.41443 36.3565C1.66299 36.2754 1.90648 36.2044 2.15503 36.1181C4.02173 35.4942 5.30508 34.2717 5.95944 32.405C6.10654 31.9891 6.25365 31.5731 6.37539 31.1521C8.62759 23.4165 10.8798 15.6809 13.1269 7.94526C13.269 7.44815 13.3755 6.9409 13.4668 6.42857C13.5175 6.14959 13.5327 5.86045 13.5125 5.57639C13.4516 4.45029 12.9393 3.59303 11.8994 3.11113C11.5037 2.92852 11.0776 2.80171 10.6617 2.66475C10.4689 2.59881 10.266 2.55823 10.0073 2.49228H10.0022Z" fill="white"/>
<path d="M198.553 37.7615C197.777 37.8579 194.206 37.8579 193.542 37.7717C193.521 37.655 193.481 37.5333 193.476 37.4115C193.384 35.5499 193.45 1.88855 193.547 1.23926C193.623 1.2139 193.714 1.1581 193.811 1.1581C195.287 1.15303 196.763 1.15303 198.244 1.1581C198.315 1.1581 198.391 1.19868 198.487 1.22404C198.604 1.49289 198.558 1.77695 198.558 2.05594C198.558 5.50019 198.558 8.94952 198.558 12.3938C198.558 20.5808 198.558 28.7679 198.558 36.955V37.7615H198.553Z" fill="white"/>
</svg>
