<svg width="245" height="57" viewBox="0 0 245 57" fill="none" xmlns="http://www.w3.org/2000/svg">
<path d="M0.28511 17.4723C0.28511 15.856 0.129883 12.4415 0.129883 11.3122H2.8968C2.8968 12.9285 3.05202 14.7214 3.05202 15.2084H3.38391C4.51317 12.7733 7.28011 10.8252 10.8659 10.8252C13.7881 10.8252 16.3999 12.2863 17.374 15.5242C18.6798 12.2863 21.7572 10.8252 24.856 10.8252C31.6743 10.8252 33.1353 15.5242 33.1353 20.2393V33.2338H30.3684V20.3945C30.3684 16.8247 29.3943 13.4155 24.8505 13.4155C19.6484 13.4155 18.1713 17.7988 18.1713 21.0528V33.389H15.2491V20.2339C15.2491 16.1771 13.7882 13.5707 10.7055 13.5707C6.47742 13.5707 3.05202 16.4929 3.05202 22.5138V33.389H0.28511V17.4723Z" fill="white"/>
<path d="M55.7418 23.9801C55.7418 28.192 55.8971 30.6272 56.229 33.0623H53.6225C53.4673 31.9331 53.2906 30.7984 53.2906 29.4926H53.1354C51.5191 32.2595 49.2392 33.5493 45.4981 33.5493C41.7571 33.5493 37.845 31.7725 37.845 27.0574C37.845 20.3943 45.6535 19.752 50.0421 19.752H53.2961V18.4462C53.2961 14.7212 50.7057 13.0889 47.1199 13.0889C44.5296 13.0889 42.4048 13.9077 40.4567 15.524L38.8404 13.5759C40.9437 11.6278 44.3583 10.4932 47.1199 10.4932C52.4933 10.4932 55.9023 12.9283 55.9023 18.4462V23.9801H55.7471H55.7418ZM50.058 22.1872C45.343 22.1872 40.6278 23.3164 40.6278 27.0574C40.6278 29.8244 43.2184 31.1142 45.6589 31.1142C51.6798 31.1142 53.312 27.218 53.312 23.6482V22.1872H50.058Z" fill="white"/>
<path d="M68.5815 39.8861C67.4522 42.653 65.6593 44.4459 62.5605 44.4459C61.5865 44.4459 60.6125 44.2747 59.7936 43.9589L60.1255 41.3525C60.9443 41.5238 61.7417 41.8395 62.7157 41.8395C64.8351 41.8395 65.6542 39.8914 66.2964 38.2698L68.2443 33.239L59.3013 11.3174H62.5553L69.8768 29.6585L76.8717 11.3174H79.7939L68.571 39.8861H68.5815Z" fill="white"/>
<path d="M96.2244 13.9075H90.0482V28.1919C90.0482 30.14 91.1773 31.2853 93.1308 31.2853C94.2761 31.2853 95.4108 30.9535 96.3848 30.4664L96.556 33.0568C95.5659 33.3886 93.9497 33.8756 92.8151 33.8756C88.7476 33.8756 87.1099 31.4405 87.1099 28.1865V13.9022H82.3948V11.3118H87.1099V4.98047H89.8768V11.3118H96.0692V13.9022H96.2244V13.9075Z" fill="white"/>
<path d="M102.245 17.4723C102.245 15.856 102.073 12.4415 102.073 11.3122H104.84C104.84 12.9285 105.012 14.7214 105.012 15.2084C106.473 12.602 108.753 10.8252 112.007 10.8252C112.494 10.8252 113.136 10.9804 113.623 10.9804L113.291 13.7474C112.804 13.5761 112.488 13.5761 112.162 13.5761C107.276 13.5761 105.012 16.9853 105.012 21.2133V33.0625H102.245V17.4723Z" fill="white"/>
<path d="M161.582 17.4723C161.582 15.856 161.427 12.4415 161.427 11.3122H164.194C164.194 12.9285 164.35 14.7214 164.35 15.2084H164.505C165.65 12.7733 168.417 10.8252 171.987 10.8252C178.821 10.8252 180.282 15.5242 180.282 20.2393V33.2338H177.36V20.3945C177.36 16.8247 176.386 13.4155 171.826 13.4155C167.598 13.4155 164.189 16.3377 164.189 22.3426V33.2338H161.422V17.4723H161.577H161.582Z" fill="white"/>
<path d="M186.945 0.597656C188.09 0.597656 189.064 1.57171 189.064 2.70097C189.064 3.83023 188.09 4.80428 186.945 4.80428C185.799 4.80428 184.842 3.83023 184.842 2.70097C184.842 1.57171 185.66 0.597656 186.945 0.597656ZM185.484 11.3123H188.251V33.2338H185.484V11.3123Z" fill="white"/>
<path d="M212.801 29.9851C210.697 32.5754 207.93 33.7261 204.831 33.7261C198.168 33.7261 193.298 28.8558 193.298 22.1926C193.298 15.5295 198.013 10.6592 204.831 10.6592C208.085 10.6592 210.852 11.9651 212.972 14.4002L210.692 16.0165C209.06 14.2396 207.111 13.0943 204.831 13.0943C199.474 13.0943 196.22 17.1618 196.22 22.0374C196.22 26.913 199.474 30.9645 204.831 30.9645C207.283 30.9645 209.231 29.6586 210.692 27.8817L212.795 29.9851H212.801Z" fill="white"/>
<path d="M218.174 27.5499C219.303 29.8298 221.915 31.1197 224.505 31.1197C226.956 31.1197 229.552 29.6586 229.552 27.0629C229.552 21.058 216.542 25.27 216.542 16.9905C216.542 12.7785 220.454 10.6592 224.024 10.6592C227.593 10.6592 230.371 11.9651 231.677 14.7267L229.07 16.1877C227.941 14.2396 226.48 13.0943 223.868 13.0943C221.765 13.0943 219.153 14.4002 219.153 16.6748C219.153 22.5191 232.164 17.9646 232.164 26.9077C232.164 31.4515 228.423 33.7261 224.195 33.7261C220.454 33.7261 217.028 32.265 215.412 29.3428L218.179 27.5499H218.174Z" fill="white"/>
<path d="M135.09 10.498C123.209 10.498 113.468 21.0574 113.468 33.8807C114.598 34.2072 115.738 34.6942 116.878 35.3418C118.183 35.984 119.468 36.8029 120.458 37.2899C120.287 36.3158 120.126 35.1866 120.126 34.0359C120.126 25.1089 126.789 17.8035 135.085 17.8035C143.38 17.8035 150.044 25.1089 150.044 34.0359C150.044 35.1812 149.872 37.2899 149.557 38.2639C152.639 37.6217 155.733 35.1812 156.707 33.8807C156.535 21.0574 146.95 10.6533 135.085 10.498H135.09Z" fill="white"/>
<path d="M155.08 39.2389C151.023 42.9799 144.189 46.7048 135.406 46.0573C131.178 45.7254 126.95 44.441 123.209 42.4875C122.406 42.0005 121.261 41.3422 120.619 41.0264C120.132 40.6946 119.473 40.2076 118.986 39.8811C117.857 39.2389 116.722 38.5913 115.577 38.1043C110.862 35.8243 105.505 35.0108 100.458 35.6691C90.5407 36.7984 83.2194 42.161 82.7324 42.4875C83.0642 42.3162 90.3696 39.0783 99.3127 39.8811C103.873 40.3681 108.427 42.0005 112.168 44.928C113.142 45.5702 114.116 46.3891 114.935 47.1919C115.422 47.5237 115.738 48.0107 116.241 48.4977C116.728 48.9848 117.531 49.627 118.189 50.2906C121.111 52.7258 124.52 54.6739 128.261 55.6479C135.899 57.7513 142.578 55.8031 146.635 53.368C150.863 50.7777 153.314 47.6789 154.775 45.2438C157.542 40.2129 157.055 37.1356 157.055 37.1356C156.552 37.7778 155.909 38.5966 155.091 39.2389H155.08Z" fill="white"/>
<path d="M135.09 10.498C123.209 10.498 113.468 21.0574 113.468 33.8807C114.598 34.2072 115.738 34.6942 116.878 35.3418C118.183 35.984 119.468 36.8029 120.458 37.2899C120.287 36.3158 120.126 35.1866 120.126 34.0359C120.126 25.1089 126.789 17.8035 135.085 17.8035C143.38 17.8035 150.044 25.1089 150.044 34.0359C150.044 35.1812 149.872 37.2899 149.557 38.2639C152.639 37.6217 155.733 35.1812 156.707 33.8807C156.535 21.0574 146.95 10.498 135.085 10.498H135.09Z" fill="white"/>
<path fill-rule="evenodd" clip-rule="evenodd" d="M235.242 10.8252V11.628H236.387V15.856H237.361V11.628H238.49V10.8252H235.236H235.242Z" fill="white"/>
<path fill-rule="evenodd" clip-rule="evenodd" d="M242.407 10.8252L241.589 14.2344L240.77 10.8252H238.977V15.856H240.122V11.9598L240.925 15.856H242.07L243.045 11.9598V15.856H244.019V10.8252H242.402H242.407Z" fill="white"/>
</svg>
