<svg width="229" height="38" viewBox="0 0 229 38" fill="none" xmlns="http://www.w3.org/2000/svg">
<path d="M207.627 23.4107C207.627 15.7407 213.277 9.75772 221.669 9.75772C224.059 9.75772 226.769 10.3291 228.79 11.4394V17.2175H228.643C226.546 16.0048 224.499 15.4334 222.152 15.4334C217.095 15.4334 214.379 18.8453 214.379 23.4107C214.379 27.976 217.095 31.3879 222.152 31.3879C224.499 31.3879 226.546 30.8166 228.643 29.6038H228.79V35.3819C226.769 36.4923 224.053 37.0636 221.669 37.0636C213.277 37.0636 207.627 31.0807 207.627 23.4107ZM206.992 36.5408C205.987 36.7456 204.825 36.9073 203.749 36.9073C198.703 36.9073 195.993 34.2878 195.993 29.4583V10.2859H202.641V28.9732C202.641 30.7142 203.483 31.5496 205.297 31.5496C205.726 31.5496 206.253 31.5065 206.829 31.3879H206.992V36.5408ZM203.336 3.88798C203.336 5.97931 201.625 7.76341 199.398 7.76341C197.171 7.76341 195.52 5.97931 195.52 3.88798C195.52 1.79664 197.275 0.0556641 199.398 0.0556641C201.522 0.0556641 203.336 1.78047 203.336 3.88798ZM173.668 21.8907C173.668 17.8536 175.749 15.234 179.567 15.234C183.386 15.234 185.097 17.6918 185.097 21.8907V36.5408H191.691V21.6266C191.691 15.3364 188.405 9.75772 181.218 9.75772C177.4 9.75772 174.847 11.6604 173.402 14.4848V10.2859H167.09V36.5408H173.668V21.8907ZM149.627 37.0798C141.279 37.0798 135.646 31.0969 135.646 23.4268C135.646 15.7568 141.279 9.77389 149.627 9.77389C157.976 9.77389 163.565 15.7568 163.565 23.4268C163.565 31.0969 157.916 37.0798 149.627 37.0798ZM149.627 31.458C154.364 31.458 156.808 28.0353 156.808 23.4215C156.808 18.8076 154.358 15.3741 149.627 15.3741C144.896 15.3741 142.403 18.7968 142.403 23.4215C142.403 28.0461 145.016 31.458 149.627 31.458ZM126.667 22.7962C126.667 18.5381 128.894 16.1665 133.158 16.1665C133.897 16.1665 134.69 16.2851 135.445 16.4899H135.548V10.4045C134.853 10.1404 133.957 9.97871 132.935 9.97871C129.752 9.97871 127.628 11.9245 126.401 15.0723V10.2859H120.073V36.5516H126.667V22.7962ZM113.055 37.0798C106.95 37.0798 103.501 34.2824 103.501 27.9922V15.5951H96.157V28.7791C96.157 30.7088 96.9065 31.5011 98.5034 31.5011C98.8728 31.5011 99.3019 31.5011 99.7691 31.3987H99.9319V36.5516C99.2964 36.7133 98.0308 36.8588 97.0694 36.8588C93.4409 36.8588 91.2139 35.5005 90.2579 32.4983C88.3405 35.4412 85.3151 37.0798 81.54 37.0798C74.7884 37.0798 69.3133 31.8676 69.3133 23.3676C69.3133 14.8675 74.7829 9.77389 81.54 9.77389C84.886 9.77389 87.6617 11.0298 89.5628 13.3421V0.319777H96.157V10.3021H103.501V4.05507H110.095V10.3021H117.156V15.6005H110.095V27.6742C110.095 30.3099 111.42 31.5658 113.973 31.5658C115.135 31.5658 115.934 31.4634 116.999 31.1993H117.162V36.557C115.896 36.8642 114.343 37.0852 113.061 37.0852L113.055 37.0798ZM82.925 31.5604C87.3954 31.5604 89.8832 28.1485 89.8832 23.3676C89.8832 18.5866 87.3899 15.2286 82.925 15.2286C78.4601 15.2286 76.0704 18.6405 76.0704 23.3676C76.0704 28.0946 78.4167 31.5604 82.925 31.5604ZM0.530695 36.5516H7.07613L8.29827 13.9134L8.56429 7.7688H8.66746L10.0527 13.9134L15.3596 36.5516H23.5451L28.9116 13.9134L30.237 7.7688H30.3404L30.6064 13.9134L31.8882 36.5516H38.6888L36.462 0.319777H25.62L20.7261 22.0524L19.6668 27.5718H19.5636L18.4446 22.0524L13.5507 0.319777H2.70897L0.525391 36.5516H0.530695ZM66.8199 22.9417C66.8199 24.1976 66.7004 25.5182 66.494 26.5692H47.3526C48.0478 29.717 50.7582 31.6628 55.8641 31.6628H55.9837C56.3096 31.6628 56.63 31.652 56.9396 31.6359C57.108 31.6251 57.2763 31.6143 57.4393 31.6089C57.5696 31.5874 57.6945 31.5766 57.8249 31.5658C59.9487 31.361 61.9695 30.7896 63.8271 29.9434C63.9738 29.8733 64.1205 29.8033 64.2672 29.7224C64.6365 29.5445 65.0057 29.3397 65.3588 29.1241H65.5219V34.4387C62.7354 36.1204 59.4436 37.0852 55.9347 37.0852V37.069C55.8043 37.069 55.6685 37.0852 55.5381 37.0852C45.9239 37.0852 40.6607 31.6682 40.6607 23.7988C40.6607 15.3418 46.0871 9.77928 53.9468 9.77928C61.8066 9.77928 66.8199 15.2825 66.8199 22.9471V22.9417ZM60.5408 21.481C60.2312 17.5463 58.151 15.234 53.9468 15.234C50.0685 15.234 47.6785 17.6487 47.2494 21.481H60.5355H60.5408Z" fill="#DDDDDD"/>
</svg>
