<svg width="180" height="50" viewBox="0 0 180 50" fill="none" xmlns="http://www.w3.org/2000/svg">
<path d="M37.6254 41.8298V32.9326C32.705 34.358 24.437 38.1776 19.2072 41.3175C19.0195 41.4342 18.8367 41.5356 18.6643 41.6422C18.573 41.7132 18.4665 41.7588 18.3854 41.8298H37.6306H37.6254Z" fill="#DDDDDD"/>
<path fill-rule="evenodd" clip-rule="evenodd" d="M37.6257 0.0830078V30.5892L36.9866 30.7617C33.8315 31.69 29.3779 33.5212 25.1576 35.5756L9.22961 15.255V41.83H0.241211V0.0830078H8.49919L28.6373 26.1558V0.0830078H37.6257ZM168.477 25.7754L179.332 41.83H169.517L163.557 33.0393L158.362 41.83H148.547L158.652 25.7754L147.015 9.73605H156.851L163.557 18.8311L169.517 9.73605H179.332L168.477 25.7754ZM112.045 9.73605L94.6107 49.0584H86.0179L90.2634 39.0807L76.7858 9.73605H86.2512L94.5904 28.966L102.813 9.73605H112.045ZM67.7364 9.73605H74.5893V41.8198H67.7364L67.224 38.6749C64.8094 41.1553 61.563 42.6974 57.5963 42.6974C46.9846 42.6974 41.0902 35.3219 41.0902 26.2167C41.0902 17.1115 47.2128 9.73605 57.5963 9.73605C61.6797 9.73605 64.8095 11.2781 67.1073 13.5303L67.7312 9.73605H67.7364ZM66.2045 26.2066C66.2045 21.4638 63.0848 17.6137 57.5963 17.6137C51.773 17.6137 48.9883 21.4638 48.9883 26.2066C48.9883 30.9494 51.6462 34.7995 57.5963 34.7995C63.5464 34.7995 66.2045 30.9494 66.2045 26.2066ZM137.357 9.73605H144.21V41.83H137.357L136.845 38.685C134.43 41.1655 131.194 42.7075 127.217 42.7075C116.605 42.7075 110.721 35.3168 110.721 26.2116C110.721 17.1064 116.844 9.73097 127.217 9.73097C131.31 9.73097 134.43 11.273 136.728 13.51L137.352 9.73097L137.357 9.73605ZM135.825 26.2167C135.825 21.4739 132.716 17.6238 127.232 17.6238C121.409 17.6238 118.624 21.4739 118.624 26.2167C118.624 30.9595 121.282 34.8096 127.232 34.8096C133.182 34.8096 135.825 30.9595 135.825 26.2167Z" fill="#DDDDDD"/>
</svg>
