<svg width="201" height="57" viewBox="0 0 201 57" fill="none" xmlns="http://www.w3.org/2000/svg">
<path fill-rule="evenodd" clip-rule="evenodd" d="M25.8627 0.992962C25.7257 1.29731 25.4315 1.97196 24.6757 3.69662C24.6098 3.8488 24.5134 4.06185 24.4677 4.1633C24.4221 4.26475 24.1786 4.81258 23.9351 5.38071C23.6916 5.94883 23.4329 6.53217 23.367 6.67928C23.301 6.82638 23.1894 7.08001 23.1184 7.24233C23.0474 7.40465 22.951 7.62277 22.9054 7.72422C22.8597 7.82567 22.6771 8.24669 22.4996 8.66264C22.322 9.07351 22.1546 9.46917 22.1242 9.53512C22.0938 9.60613 21.9822 9.8699 21.8706 10.1286C21.6677 10.6105 21.4901 11.0214 21.343 11.346C21.2974 11.4475 21.1807 11.7163 21.0894 11.9395C20.9981 12.1627 20.8713 12.4569 20.8104 12.5939C20.7496 12.7308 20.5669 13.1518 20.4046 13.5323C20.2423 13.9127 20.08 14.2881 20.0343 14.3743C19.9887 14.4605 19.9177 14.6432 19.872 14.7801C19.8264 14.9171 19.7706 15.0591 19.7452 15.0946C19.7198 15.1301 19.6792 15.2417 19.659 15.3432C19.6336 15.4446 19.5626 15.6729 19.5017 15.8454C18.8981 17.4736 18.7408 19.3251 19.0807 20.7809C19.1669 21.1614 19.2887 21.6078 19.3495 21.7802C19.5524 22.3483 20.2017 23.4998 20.3235 23.4998C20.3539 23.4998 20.3742 23.5353 20.3742 23.5708C20.3742 23.6063 20.5213 23.8143 20.6988 24.0223C21.617 25.0977 22.5249 25.7419 23.6561 26.1325C24.3003 26.3556 25.4264 26.5535 26.0402 26.5585C26.6489 26.5585 27.8562 26.3506 28.5207 26.1223C29.7736 25.6962 30.7577 24.9658 31.7519 23.7179C32.041 23.3578 32.6193 22.4346 32.6193 22.3382C32.6193 22.323 32.6751 22.1911 32.741 22.0491C33.2381 20.9838 33.4157 19.4215 33.2128 17.8997C33.0454 16.6265 32.6548 15.4446 31.6504 13.1569C31.4526 12.7105 31.2548 12.2591 31.2091 12.1576C31.1635 12.0562 30.9961 11.6605 30.8388 11.2851C30.6816 10.9098 30.5091 10.5141 30.4635 10.4127C30.4178 10.3112 30.2859 10.0119 30.1794 9.75831C30.0729 9.49961 29.9461 9.2054 29.9004 9.10395C29.8548 9.0025 29.6316 8.48003 29.3982 7.94741C28.825 6.61841 28.7489 6.44594 28.6475 6.22782C28.6018 6.12637 28.3076 5.45172 27.9931 4.72635C27.6786 4.00605 27.3844 3.3314 27.3388 3.22488C27.0243 2.54516 26.3699 1.00818 26.3699 0.952382C26.3699 0.871221 26.1467 0.632812 26.0706 0.632812C26.0453 0.632812 25.9489 0.795133 25.8576 0.992962M41.1614 3.39734C41.0448 3.51401 40.9991 3.7017 40.8825 4.5691C40.8064 5.13723 40.6846 5.97927 40.6136 6.44594C40.5477 6.90754 40.1267 9.86483 39.6803 13.0098C39.2339 16.1548 38.8281 19.0106 38.7774 19.3505C38.6607 20.1266 38.5136 21.1563 38.402 21.973C38.2447 23.1143 37.981 24.9607 37.773 26.3455C37.7223 26.6904 37.636 27.2788 37.5853 27.6593C37.5346 28.0397 37.4534 28.6281 37.4027 28.968C37.3368 29.4144 37.3317 29.6122 37.3773 29.6731C37.4737 29.7898 45.534 29.7593 45.605 29.6376C45.6304 29.5919 45.7318 28.9883 45.8282 28.2934C45.9246 27.5984 46.0412 26.7767 46.0869 26.4672C46.1325 26.1578 46.2593 25.2853 46.3659 24.5295C46.4724 23.7737 46.584 22.9723 46.6195 22.7491C46.8275 21.415 47.3652 17.4787 47.3652 17.2961C47.3652 17.0628 47.5731 16.8041 47.6695 16.9106C47.6999 16.941 47.9384 17.5041 48.1971 18.1534C49.029 20.2432 49.9572 22.5157 50.3326 23.4034C50.3782 23.5049 50.5456 23.9259 50.713 24.3418C50.8754 24.7527 51.2558 25.6962 51.5551 26.4368C51.8544 27.1774 52.2602 28.1716 52.4529 28.6535C52.6457 29.1354 52.8638 29.5767 52.9348 29.6376C53.0565 29.739 53.3457 29.7492 57.0486 29.7492C60.7516 29.7492 61.0407 29.739 61.1574 29.6376C61.2588 29.5513 61.3045 29.3687 61.3806 28.7448C61.4364 28.3136 61.5378 27.568 61.6088 27.0912C61.6799 26.6143 61.7915 25.823 61.8574 25.3411C62.0146 24.2201 62.1465 23.302 62.2987 22.2773C62.3647 21.8309 62.4762 21.0701 62.5422 20.5882C62.806 18.7367 62.9378 17.8084 63.0545 16.9968C63.1205 16.5352 63.1915 16.0533 63.2067 15.9367C63.2219 15.8149 63.2879 15.3381 63.3589 14.8765C63.4299 14.4149 63.5415 13.6134 63.6125 13.096C63.6835 12.5786 63.7951 11.7924 63.8611 11.346C63.927 10.8996 64.0386 10.1134 64.1147 9.59599C64.1908 9.07859 64.3024 8.29234 64.3632 7.84596C64.4241 7.39958 64.5408 6.61333 64.6118 6.09593C64.6828 5.57854 64.8045 4.78215 64.8756 4.32055L65.0074 3.48358L64.8654 3.36691C64.7285 3.25531 64.5205 3.25024 60.8226 3.25024H56.9218L56.7798 3.39227C56.6631 3.50894 56.6175 3.67633 56.5262 4.31547C56.4653 4.74664 56.3588 5.47709 56.2928 5.93869C56.2269 6.40029 56.1559 6.88218 56.1457 6.99885C56.1305 7.12059 56.0747 7.51117 56.024 7.87132C55.9733 8.23147 55.7704 9.62642 55.5827 10.9656C55.395 12.3047 55.2124 13.5729 55.1819 13.7758C55.1515 13.9837 55.0653 14.5874 54.9943 15.12C54.8066 16.4896 54.7863 16.591 54.6899 16.591C54.5935 16.591 54.4413 16.312 54.2537 15.8098C54.1826 15.6222 53.9087 14.9019 53.645 14.2171C52.7776 11.9699 52.6406 11.5996 52.3413 10.8134C52.179 10.3822 52.0065 9.93585 51.9558 9.8141C51.9051 9.69744 51.6362 9.00757 51.3572 8.2822C51.0783 7.55683 50.779 6.77058 50.6826 6.5271C50.5913 6.28869 50.358 5.67999 50.1652 5.18288C49.5514 3.5901 49.4956 3.46836 49.3536 3.35676C49.2268 3.25531 48.9072 3.25024 45.2601 3.24517H41.3035L41.1665 3.38213M67.8227 3.31618C67.6604 3.38213 67.6401 3.443 67.5488 4.12779C67.5082 4.41692 67.4676 4.67055 67.4575 4.69084C67.4473 4.71113 67.4067 4.99012 67.3662 5.31984C67.3256 5.64448 67.2546 6.18217 67.2039 6.50681C67.0821 7.27276 66.935 8.30756 66.8285 9.09888C66.7321 9.85469 66.5799 10.8895 66.4531 11.6909C66.4024 12.0156 66.3314 12.5381 66.2908 12.8475C66.2502 13.1569 66.1995 13.5221 66.169 13.6591C66.1386 13.796 66.098 14.0801 66.0777 14.283C66.0575 14.491 65.9814 15.054 65.9104 15.5309C65.8393 16.0127 65.7277 16.7838 65.6618 17.2504C65.5959 17.712 65.4843 18.4729 65.4183 18.9396C65.3473 19.4012 65.2611 20.0353 65.2256 20.3447C65.19 20.6541 65.1343 21.0193 65.1038 21.1563C65.0734 21.2933 65.0328 21.5773 65.0125 21.7802C64.9922 21.9882 64.9212 22.5208 64.8553 22.9672C64.7132 23.9259 64.5357 25.1687 64.3531 26.4672C64.2821 26.9846 64.1705 27.7709 64.1045 28.2173C63.8915 29.6934 63.8966 29.6071 64.0335 29.6832C64.1197 29.7289 66.5749 29.7492 71.972 29.7492C79.7026 29.7492 79.7888 29.7492 79.9106 29.6224C79.9816 29.5513 80.0374 29.46 80.0374 29.4144C80.0374 29.247 80.22 27.8622 80.2504 27.8165C80.2656 27.7912 80.3113 27.4615 80.3519 27.0861C80.3924 26.7107 80.4482 26.3049 80.4787 26.1832C80.5091 26.0614 80.5801 25.5897 80.6309 25.1281C80.6867 24.6665 80.7425 24.2658 80.7627 24.2353C80.8236 24.1339 80.9504 22.8353 80.9149 22.6781L80.8794 22.5259L77.3641 22.4954C73.5851 22.4599 73.6815 22.4701 73.7576 22.1505C73.7728 22.0795 73.8184 21.7549 73.8539 21.4302C73.9554 20.5172 74.0315 20.1976 74.1837 20.0911C74.3003 20.0099 74.7619 19.9947 77.4504 19.9947C80.4888 19.9947 80.5852 19.9947 80.6917 19.8729C80.7729 19.7816 80.8236 19.5483 80.8845 19.0055C80.9301 18.5947 80.9961 18.1534 81.0265 18.0215C81.062 17.8896 81.1077 17.57 81.128 17.3113C81.1483 17.0526 81.2091 16.6316 81.2548 16.3729C81.3004 16.1142 81.3714 15.6171 81.412 15.2722C81.4475 14.9221 81.5084 14.5417 81.5388 14.4301C81.5743 14.3134 81.62 13.9837 81.6403 13.6997C81.6707 13.2888 81.6606 13.1671 81.5946 13.1214C81.5439 13.091 80.0982 13.0656 78.3837 13.0656C76.6692 13.0656 75.2185 13.0402 75.1728 13.0098C75.1069 12.9692 75.0967 12.8576 75.1272 12.5279C75.2083 11.7366 75.3656 10.8489 75.4518 10.7069L75.538 10.5648H79.0229C80.9403 10.5648 82.5432 10.5395 82.5889 10.509C82.6954 10.4431 82.8729 9.56555 82.9693 8.65249C83.0099 8.27713 83.0707 7.86625 83.1012 7.74451C83.1316 7.62277 83.1874 7.22711 83.228 6.87203C83.2686 6.51696 83.3193 6.1213 83.3548 5.99956C83.3903 5.87782 83.441 5.48216 83.4766 5.12708C83.5121 4.76693 83.5831 4.29011 83.6338 4.05678C83.7505 3.52923 83.7505 3.52923 83.6034 3.38213C83.4816 3.26039 83.3954 3.25531 75.7156 3.26039C71.4445 3.26039 67.8886 3.29082 67.8176 3.32126M86.0838 3.39734C85.9367 3.52416 85.9164 3.60532 85.8606 4.1633C85.8251 4.50823 85.7592 4.98505 85.7085 5.22346C85.6577 5.46187 85.6019 5.88796 85.5766 6.16188C85.5563 6.43579 85.5005 6.84667 85.4498 7.06986C85.4041 7.29305 85.3331 7.78509 85.2976 8.16046C85.257 8.53582 85.2114 8.87061 85.1911 8.90105C85.1353 8.99235 84.9831 10.4025 85.0186 10.5192C85.0389 10.575 85.0947 10.6409 85.1505 10.6612C85.2063 10.6815 86.2157 10.6714 87.3976 10.6308C88.5795 10.5953 89.5737 10.5801 89.6092 10.6003C89.7208 10.6663 89.7158 10.7018 89.3607 13.1011C89.2947 13.5475 89.2237 14.0801 89.2034 14.2881C89.1832 14.4961 89.1274 14.8714 89.0817 15.1301C89.036 15.3888 88.9802 15.7794 88.9549 16.0026C88.9295 16.2258 88.8788 16.6214 88.8281 16.8751C88.7824 17.1338 88.7215 17.5396 88.7013 17.7831C88.681 18.0215 88.6252 18.4323 88.5744 18.691C88.4933 19.1121 88.3918 19.8527 88.2244 21.1918C88.194 21.4505 88.123 21.8918 88.0723 22.1759C88.0215 22.4599 87.9505 22.9773 87.915 23.3324C87.8795 23.6875 87.8237 24.073 87.7933 24.1947C87.7628 24.3165 87.707 24.6969 87.6715 25.0368C87.636 25.3817 87.565 25.8738 87.5194 26.1325C87.4737 26.3912 87.4128 26.797 87.3925 27.0404C87.3723 27.2839 87.3266 27.6035 87.2911 27.7607C87.2556 27.9129 87.1896 28.3948 87.1389 28.8209C87.0578 29.5412 87.0578 29.6071 87.1541 29.6782C87.3063 29.7898 95.5644 29.7898 95.6557 29.6782C95.7267 29.5869 95.8028 29.1658 95.9804 27.8622C96.0463 27.3549 96.1173 26.9187 96.1325 26.8933C96.1477 26.868 96.1934 26.5535 96.2289 26.1933C96.2695 25.8332 96.3354 25.3259 96.3862 25.0723C96.4369 24.8187 96.4927 24.423 96.513 24.1998C96.5333 23.9766 96.5891 23.581 96.6398 23.3273C96.6854 23.0686 96.7463 22.6628 96.7666 22.4194C96.7869 22.1759 96.8427 21.7853 96.8934 21.5469C96.9391 21.3085 97.0101 20.8164 97.0456 20.4512C97.0811 20.086 97.1369 19.6954 97.1724 19.5787C97.2079 19.4621 97.2586 19.0664 97.2992 18.7063C97.3398 18.3461 97.3956 17.9505 97.426 17.8236C97.4565 17.7019 97.5123 17.3062 97.5528 16.9512C97.5883 16.591 97.6441 16.2004 97.6746 16.0838C97.705 15.962 97.7608 15.5816 97.7963 15.2417C97.8318 14.8968 97.9028 14.4048 97.9485 14.1461C97.9942 13.8874 98.055 13.4815 98.0753 13.2381C98.0956 12.9946 98.1413 12.675 98.1768 12.5178C98.2123 12.3656 98.2782 11.9141 98.3239 11.5235C98.3898 10.9808 98.4355 10.783 98.5268 10.6917C98.6434 10.575 98.7094 10.575 100.774 10.6359C102.159 10.6815 102.96 10.6815 103.062 10.6409C103.178 10.5953 103.229 10.5243 103.249 10.3721C103.265 10.2605 103.305 9.95614 103.341 9.69744C103.376 9.43874 103.432 9.03293 103.467 8.78945C103.604 7.84089 103.66 7.44016 103.782 6.57275C103.848 6.07565 103.919 5.62419 103.939 5.57346C103.959 5.52274 104.02 5.11186 104.076 4.66548C104.132 4.2191 104.193 3.74735 104.208 3.62054C104.233 3.41256 104.218 3.38213 104.071 3.32126C103.959 3.28068 100.891 3.25531 95.0673 3.25531H86.2309L86.0686 3.39734M110.823 3.48865C110.706 3.61546 110.61 3.74735 110.61 3.77778C110.61 3.82851 109.732 5.61912 109.605 5.82202C109.575 5.87274 109.519 5.98434 109.483 6.07057C109.448 6.15681 109.392 6.2684 109.357 6.31913C109.321 6.36985 109.265 6.48145 109.23 6.56768C109.194 6.65391 109.139 6.76551 109.108 6.81624C109.073 6.86696 108.89 7.23218 108.697 7.62784C108.504 8.0235 108.322 8.38872 108.291 8.43945C108.21 8.57133 108.058 8.88076 107.982 9.06337C107.946 9.1496 107.891 9.2612 107.86 9.31192C107.83 9.36265 106.222 12.5533 104.294 16.4033C102.367 20.2534 100.764 23.444 100.733 23.4947C100.703 23.5455 100.13 24.6969 99.45 26.0564C98.7753 27.4158 98.0956 28.76 97.9485 29.0542C97.7405 29.4499 97.6898 29.6021 97.7405 29.6629C97.8369 29.7796 106.759 29.7847 106.836 29.6629C106.861 29.6224 106.917 29.5006 106.957 29.3992C107.064 29.1151 107.409 28.2578 107.576 27.8673C107.657 27.6796 107.799 27.3144 107.896 27.0658C108.023 26.731 108.114 26.589 108.22 26.5484C108.302 26.518 109.823 26.4926 111.599 26.4926C114.201 26.4926 114.855 26.5078 114.947 26.5738C115.048 26.6448 115.073 26.8325 115.149 28.06C115.195 28.831 115.251 29.526 115.266 29.6021L115.297 29.7441H119.598C124.387 29.7441 124.102 29.7695 123.986 29.3282C123.95 29.1963 123.889 28.7803 123.854 28.3999C123.818 28.0194 123.747 27.502 123.697 27.2433C123.651 26.9846 123.59 26.5636 123.57 26.3049C123.55 26.0462 123.494 25.6252 123.443 25.3665C123.397 25.1078 123.337 24.6716 123.316 24.3976C123.296 24.1237 123.24 23.7129 123.195 23.4897C123.149 23.2665 123.093 22.8607 123.073 22.5817C123.052 22.3078 122.992 21.8715 122.946 21.6128C122.9 21.3541 122.829 20.8367 122.789 20.4614C122.753 20.086 122.708 19.7563 122.692 19.736C122.677 19.7106 122.606 19.2084 122.54 18.615C122.474 18.0215 122.403 17.5193 122.388 17.4939C122.373 17.4686 122.327 17.1439 122.292 16.7686C122.251 16.3932 122.18 15.8606 122.134 15.5867C122.089 15.3127 122.028 14.8917 122.008 14.6482C121.987 14.4048 121.931 13.9989 121.886 13.7402C121.84 13.4815 121.784 13.0453 121.764 12.7714C121.744 12.4975 121.683 12.0612 121.637 11.8025C121.592 11.5438 121.521 11.0417 121.485 10.6815C121.45 10.3214 121.394 9.93077 121.363 9.80903C121.333 9.68729 121.287 9.35758 121.267 9.08366C121.247 8.80974 121.171 8.26191 121.105 7.87132C121.039 7.48074 120.983 7.07494 120.983 6.96334C120.983 6.85682 120.927 6.43072 120.861 6.01985C120.795 5.60897 120.724 5.07128 120.704 4.83287C120.633 4.06185 120.491 3.46836 120.349 3.34662C120.227 3.24517 119.908 3.23502 115.626 3.23502H111.031L110.818 3.46836M129.799 3.40749C129.682 3.52923 129.642 3.68648 129.576 4.20388C129.53 4.55896 129.449 5.15752 129.393 5.53796C129.099 7.49088 129.048 7.8206 129.013 8.19596C128.992 8.41916 128.947 8.69815 128.916 8.81989C128.886 8.94163 128.83 9.32207 128.795 9.66193C128.759 10.0018 128.688 10.4837 128.642 10.7221C128.597 10.9605 128.536 11.3714 128.516 11.6301C128.495 11.8888 128.45 12.1982 128.419 12.3199C128.389 12.4417 128.318 12.9134 128.267 13.375C128.211 13.8366 128.155 14.2323 128.14 14.2576C128.125 14.283 128.069 14.6533 128.018 15.0794C127.968 15.5055 127.902 15.9772 127.866 16.1345C127.831 16.2867 127.79 16.5961 127.765 16.8193C127.74 17.0425 127.674 17.5751 127.608 18.0063C127.542 18.4374 127.43 19.2084 127.354 19.7258C127.278 20.2432 127.166 21.0143 127.1 21.4454C127.034 21.8766 126.963 22.394 126.943 22.602C126.923 22.8099 126.867 23.1853 126.821 23.444C126.776 23.7027 126.715 24.1085 126.695 24.352C126.674 24.5904 126.618 24.9708 126.573 25.194C126.527 25.4172 126.471 25.7977 126.451 26.0361C126.431 26.2745 126.37 26.6854 126.324 26.9441C126.279 27.2028 126.208 27.6948 126.167 28.0397C126.126 28.3847 126.086 28.6789 126.076 28.6992C126.066 28.7194 126.025 28.9274 125.984 29.1608C125.934 29.4753 125.934 29.6071 125.984 29.6731C126.045 29.7441 126.735 29.7593 130.23 29.7593C132.675 29.7593 134.471 29.734 134.557 29.6984C134.684 29.6477 134.719 29.5869 134.75 29.3079C134.77 29.1253 134.846 28.5977 134.912 28.131C135.095 26.8832 135.262 25.7165 135.409 24.6614C135.48 24.144 135.587 23.4592 135.637 23.1295C135.688 22.8049 135.769 22.2266 135.815 21.8462C135.861 21.4657 135.927 21.0346 135.962 20.8773C135.998 20.7201 136.028 20.507 136.028 20.4005C136.028 19.9845 135.916 19.9998 139.452 19.9998H142.648L142.734 19.8577C142.78 19.7816 142.881 19.2947 142.952 18.7773C143.312 16.2968 143.708 13.4105 143.713 13.2989C143.713 13.2736 143.667 13.2127 143.617 13.1569C143.53 13.0707 143.15 13.0605 140.375 13.0605C137.601 13.0605 137.22 13.0453 137.154 12.9692C137.078 12.8779 137.088 12.8069 137.377 10.8946C137.393 10.788 137.443 10.6663 137.494 10.6257C137.555 10.575 138.6 10.5496 141.085 10.5395C144.24 10.5243 144.601 10.5141 144.692 10.4228C144.763 10.3518 144.829 10.0576 144.905 9.48439C145.052 8.39379 145.199 7.359 145.311 6.61841C145.595 4.74664 145.732 3.61546 145.696 3.47851C145.676 3.3872 145.595 3.30604 145.514 3.28575C145.438 3.26546 141.897 3.24517 137.651 3.24517H129.931L129.789 3.39734M148.309 3.40749C148.212 3.52923 148.111 4.11765 147.796 6.32927C147.335 9.56555 147.203 10.4837 147.076 11.3815C146.939 12.3656 146.173 17.7019 146.077 18.3816C146.031 18.7063 145.93 19.3961 145.859 19.9135C145.788 20.4309 145.671 21.2172 145.605 21.6636C145.387 23.1498 145.29 23.8447 145.199 24.5397C145.148 24.9201 145.093 25.2955 145.077 25.3817C145.062 25.468 145.006 25.8484 144.956 26.2238C144.844 27.0506 144.712 27.9839 144.57 28.9021C144.469 29.5564 144.469 29.5869 144.58 29.668C144.753 29.7948 152.965 29.7948 153.138 29.668C153.249 29.5869 153.579 27.4412 154.614 20.0353C154.903 17.9606 154.989 17.3671 155.359 14.7852C155.573 13.3091 155.912 10.9148 156.115 9.47424C156.496 6.79087 156.602 6.03506 156.775 4.87853C156.831 4.51838 156.886 4.03141 156.907 3.80315C156.942 3.39227 156.937 3.38213 156.775 3.32126C156.668 3.28068 155.162 3.25531 152.524 3.25531H148.441L148.324 3.40242M162.654 3.32126C162.593 3.35676 162.517 3.43793 162.481 3.50387C162.431 3.60025 161.583 6.46623 161.416 7.1003C161.391 7.20175 161.193 7.8764 160.98 8.60177C160.767 9.32207 160.539 10.1134 160.473 10.3518C160.407 10.5902 160.082 11.7163 159.752 12.8526C159.423 13.9888 159.103 15.0997 159.037 15.3229C158.92 15.7388 157.739 19.8374 157.52 20.573C157.454 20.7961 157.333 21.2172 157.252 21.5114C157.17 21.8056 157.003 22.3788 156.886 22.7947C156.572 23.8802 155.502 27.5731 155.187 28.6687C155.009 29.2774 154.938 29.6274 154.979 29.668C155.02 29.7086 156.496 29.739 159.098 29.7492C163.76 29.7695 163.323 29.8303 163.491 29.1303C163.541 28.9122 163.648 28.5064 163.719 28.2325C163.795 27.9586 163.922 27.4716 164.008 27.152C164.089 26.8325 164.226 26.3151 164.313 25.9955C164.394 25.6759 164.52 25.2042 164.592 24.9506C164.663 24.6969 164.815 24.1187 164.931 23.6672C165.048 23.2157 165.236 22.5157 165.347 22.1049C165.459 21.694 165.601 21.1512 165.667 20.9027C165.733 20.6541 165.844 20.2331 165.915 19.9643C165.986 19.6954 166.169 19.0005 166.316 18.4171C166.631 17.1896 166.697 16.9917 166.783 17.0425C166.879 17.1033 166.955 17.4736 167.062 18.4476C167.118 18.9447 167.219 19.7918 167.285 20.3244C167.351 20.857 167.463 21.8005 167.539 22.4194C167.61 23.0382 167.716 23.8803 167.767 24.2962C167.818 24.7071 167.899 25.3817 167.944 25.7977C168.34 29.2216 168.401 29.6325 168.538 29.7035C168.609 29.739 169.735 29.7644 171.399 29.7644C174.559 29.7644 174.285 29.8202 174.554 29.11C174.645 28.8716 174.792 28.476 174.879 28.2376C174.97 27.9991 175.066 27.7455 175.097 27.6745C175.203 27.431 175.472 26.7259 175.472 26.6803C175.472 26.6549 175.523 26.518 175.584 26.3709C175.645 26.2238 175.776 25.8991 175.873 25.6404C175.969 25.3817 176.096 25.0469 176.162 24.8897C176.223 24.7375 176.35 24.4129 176.441 24.1694C176.608 23.7179 176.72 23.4339 176.913 22.952C176.974 22.7998 177.156 22.3179 177.318 21.8918C177.481 21.4606 177.663 20.9889 177.729 20.8418C177.795 20.6947 177.846 20.5425 177.846 20.507C177.846 20.4715 177.887 20.3498 177.937 20.2432C178.074 19.944 178.348 19.2287 178.348 19.178C178.348 19.1526 178.389 19.0411 178.44 18.9345C178.582 18.62 178.85 17.92 178.85 17.8642C178.85 17.8338 178.942 17.6157 179.048 17.3823C179.211 17.0273 179.256 16.9715 179.307 17.0577C179.342 17.1236 179.363 19.4773 179.353 23.3628C179.342 29.0289 179.353 29.5716 179.444 29.6629C179.535 29.7542 179.911 29.7644 183.309 29.7644C186.155 29.7644 187.093 29.7441 187.149 29.6883C187.251 29.5869 187.261 3.57488 187.159 3.3872C187.098 3.27053 186.982 3.26546 182.706 3.26546C178.455 3.26546 178.313 3.26546 178.115 3.3872C177.998 3.45822 177.897 3.58503 177.871 3.68141C177.846 3.77779 177.724 4.12272 177.597 4.44736C177.471 4.772 177.232 5.39085 177.07 5.82202C176.908 6.25318 176.72 6.72493 176.654 6.87203C176.588 7.01914 176.537 7.17131 176.537 7.20682C176.537 7.24233 176.497 7.36407 176.446 7.47059C176.395 7.57712 176.253 7.93219 176.132 8.26191C176.01 8.59162 175.883 8.91119 175.853 8.98221C175.822 9.05322 175.71 9.34743 175.604 9.63656C175.497 9.9257 175.381 10.225 175.35 10.2909C175.295 10.4076 175.259 10.5141 175.01 11.1989C174.955 11.3511 174.884 11.5388 174.853 11.6047C174.823 11.6757 174.721 11.9243 174.635 12.1678C174.544 12.4062 174.361 12.8881 174.229 13.2279C173.818 14.2932 173.671 14.6787 173.352 15.5511C173.311 15.6627 173.21 15.7946 173.129 15.8504C172.987 15.9417 172.976 15.9417 172.951 15.8048C172.936 15.7287 172.905 15.4243 172.89 15.1352C172.87 14.841 172.814 14.3084 172.763 13.9482C172.677 13.3243 172.571 12.4417 172.383 10.7931C172.337 10.3822 172.256 9.67715 172.2 9.23076C172.073 8.21625 171.886 6.66913 171.759 5.6039C171.703 5.15752 171.632 4.50823 171.597 4.16837C171.541 3.62054 171.516 3.52416 171.379 3.40242L171.221 3.26039H166.991C164.252 3.26039 162.72 3.28575 162.654 3.32633M190.071 3.30097C189.888 3.34662 189.853 3.43285 189.853 3.82851C189.853 4.09228 189.878 4.18866 189.949 4.2191C190.005 4.23939 190.324 4.2546 190.659 4.2546C191.161 4.2546 191.278 4.27489 191.309 4.35098C191.329 4.40678 191.349 5.24375 191.354 6.2126C191.354 7.18146 191.38 8.04379 191.405 8.13002C191.446 8.27713 191.476 8.28727 191.948 8.30249C192.222 8.31263 192.485 8.29234 192.541 8.25684C192.622 8.20611 192.638 7.90176 192.653 6.30898C192.663 5.07636 192.693 4.39156 192.739 4.33576C192.785 4.27997 192.988 4.2546 193.383 4.2546C194.093 4.2546 194.205 4.17852 194.134 3.74228C194.053 3.23502 194.134 3.25531 192.049 3.26039C191.03 3.26039 190.142 3.28068 190.076 3.30097M194.824 3.39734C194.738 3.51909 194.727 3.85387 194.727 5.8068C194.727 7.25247 194.753 8.11988 194.793 8.20104C194.849 8.30249 194.925 8.32278 195.29 8.32278C195.569 8.32278 195.742 8.29234 195.772 8.24669C195.798 8.20611 195.823 7.44523 195.823 6.56261C195.823 4.81766 195.874 4.53359 196.072 5.13215C196.127 5.30462 196.198 5.46187 196.229 5.48216C196.254 5.49738 196.3 5.61404 196.32 5.74086C196.346 5.86767 196.412 6.08579 196.477 6.22782C196.538 6.36985 196.625 6.5829 196.665 6.70464C196.706 6.82638 196.812 7.10537 196.893 7.32856C196.98 7.55175 197.071 7.81552 197.106 7.91698C197.198 8.20611 197.35 8.32785 197.609 8.32785C197.867 8.32785 198.04 8.15538 198.131 7.82567C198.156 7.73944 198.222 7.54161 198.288 7.38943C198.425 7.0445 198.491 6.86189 198.801 5.96405C199.07 5.17781 199.288 4.80244 199.369 4.99519C199.394 5.05607 199.414 5.79158 199.409 6.62348C199.409 7.74958 199.425 8.16553 199.48 8.23147C199.536 8.29742 199.683 8.32278 199.988 8.32278H200.419V3.33647L200.277 3.30097C200.054 3.2401 199.064 3.25531 198.892 3.32126C198.725 3.3872 198.577 3.61546 198.41 4.07199C198.354 4.22417 198.233 4.54881 198.141 4.79229C198.05 5.0307 197.933 5.35534 197.888 5.51259C197.801 5.78651 197.598 5.98941 197.482 5.9184C197.451 5.89811 197.406 5.77637 197.385 5.64955C197.365 5.52274 197.309 5.36042 197.264 5.2894C197.218 5.21839 197.152 5.06621 197.117 4.94447C197.025 4.64519 196.772 3.97054 196.619 3.63068C196.467 3.28575 196.412 3.26546 195.564 3.26546C194.976 3.26546 194.92 3.2756 194.829 3.40242M113.983 11.9294C113.851 12.2844 113.349 13.5475 113.273 13.725C113.227 13.8265 113.171 13.9837 113.146 14.07C113.12 14.1562 113.06 14.283 113.014 14.349C112.968 14.4149 112.928 14.5163 112.928 14.5671C112.928 14.6178 112.872 14.77 112.801 14.8968C112.73 15.0236 112.674 15.1656 112.674 15.2113C112.674 15.2569 112.618 15.3939 112.547 15.5258C112.476 15.6526 112.42 15.7946 112.42 15.8352C112.42 15.8809 112.349 16.0533 112.268 16.2258C112.187 16.3983 112.116 16.5758 112.111 16.6164C112.111 16.657 112.055 16.799 111.984 16.9258C111.913 17.0526 111.857 17.1997 111.857 17.2454C111.857 17.291 111.817 17.4026 111.766 17.4939C111.715 17.5852 111.634 17.7729 111.583 17.9099C111.533 18.0468 111.436 18.3005 111.37 18.4729C110.995 19.4012 110.99 19.4215 111.061 19.4976C111.112 19.5483 111.654 19.5686 112.892 19.5686C114.51 19.5686 114.657 19.5584 114.698 19.457C114.744 19.3353 114.698 18.0722 114.602 16.8497C114.566 16.4033 114.5 15.0997 114.46 13.9533C114.399 12.2895 114.363 11.8583 114.292 11.8127C114.14 11.7163 114.049 11.7467 113.978 11.9243M11.2893 16.1142C11.2335 16.1751 11.1422 16.3374 11.0864 16.4743C11.0306 16.6113 10.9291 16.8396 10.8632 16.9867C10.7972 17.1338 10.6856 17.3874 10.6146 17.5497C10.5436 17.712 10.4472 17.9302 10.4016 18.0316C10.3559 18.1331 10.2393 18.4019 10.148 18.6251C10.0566 18.8483 9.92476 19.1577 9.85375 19.315C9.78273 19.4671 9.67621 19.7157 9.61027 19.8628C9.54432 20.0099 9.44287 20.2483 9.37693 20.3954C9.31098 20.5425 9.20446 20.786 9.13345 20.9433C9.06243 21.0954 8.93054 21.4049 8.83924 21.6331C8.74793 21.8563 8.61097 22.1657 8.53996 22.323C8.46894 22.4752 8.36242 22.7186 8.30155 22.8556C8.24068 22.9926 8.14937 23.2056 8.09865 23.3223C8.04285 23.444 7.85517 23.8802 7.67763 24.2911C7.50009 24.702 7.30226 25.1585 7.23632 25.3056C7.17037 25.4527 7.05878 25.7064 6.98776 25.8687C6.91675 26.031 6.82037 26.2491 6.77472 26.3506C6.72906 26.452 6.54645 26.873 6.36891 27.289C6.19137 27.6999 5.99355 28.1564 5.9276 28.3035C5.75514 28.6941 5.59789 29.0542 5.43557 29.4448C5.29354 29.7948 5.17179 30.0637 4.93846 30.576C4.86744 30.7332 4.80657 30.8854 4.80657 30.9057C4.80657 30.9463 4.53773 31.5601 4.43628 31.7579C4.40584 31.8137 4.30946 32.0521 4.21309 32.2905C4.05076 32.7014 3.84786 33.1782 3.65511 33.5992C3.60945 33.7007 3.47757 34 3.37104 34.2536C3.26452 34.5123 3.12249 34.842 3.05655 34.9891C2.9906 35.1362 2.87901 35.3898 2.80799 35.5522C2.73698 35.7145 2.6406 35.9326 2.59495 36.034C2.54929 36.1355 2.43262 36.4043 2.34132 36.6275C2.16885 37.0536 2.11813 37.1703 1.84928 37.7739C1.75798 37.9768 1.68696 38.1696 1.68696 38.2C1.68696 38.2305 1.63116 38.3776 1.56522 38.5247C1.49928 38.6718 1.42319 38.8747 1.4029 38.9761C1.37754 39.0776 1.33696 39.1892 1.31667 39.2247C1.27609 39.2805 1.18985 39.5544 0.748543 40.9899C0.6826 41.203 0.626802 41.4464 0.626802 41.5276C0.626802 41.6088 0.586221 41.7863 0.540569 41.9233C0.489843 42.0602 0.418828 42.4356 0.38332 42.7602C0.302159 43.4298 0.271724 43.5668 0.190564 43.5668C0.155056 43.5668 0.134766 44.0842 0.134766 44.8095C0.134766 45.8139 0.149983 46.0574 0.220999 46.0878C0.276797 46.1081 0.322449 46.2806 0.352885 46.5799C0.378247 46.8335 0.439118 47.1936 0.489843 47.3813C0.540569 47.569 0.616657 47.8784 0.662309 48.0712C0.824631 48.7509 1.38768 50.09 1.76812 50.6937C1.84421 50.8154 1.94566 50.9828 1.99131 51.069C2.33625 51.7031 3.48771 53.0321 4.48193 53.9452C5.75006 55.1119 7.68777 55.9387 10.0516 56.3191C10.3001 56.3597 10.503 56.4206 10.503 56.451C10.503 56.5271 12.1719 56.5271 12.2175 56.451C12.2378 56.4206 12.456 56.3597 12.7045 56.3191C14.4698 56.0351 16.0118 55.4974 17.2495 54.7416C17.6502 54.4981 18.5887 53.7068 19.03 53.2452C20.8814 51.2973 21.7894 49.6386 22.3423 47.1936C22.6061 46.0269 22.6061 43.6581 22.3423 42.3494C22.1749 41.5175 21.7996 40.1276 21.5967 39.5696C21.551 39.4479 21.4597 39.1892 21.3836 38.9913C21.0539 38.0834 20.7952 37.4341 20.5162 36.8203C20.3082 36.3638 20.2474 36.2217 19.9075 35.4152C19.7503 35.0348 19.5778 34.6442 19.5321 34.5427C19.4865 34.4413 19.2988 34.0203 19.1263 33.6043C18.9488 33.1934 18.7814 32.7978 18.751 32.7318C18.7205 32.6608 18.6089 32.397 18.5024 32.1383C18.3959 31.8796 18.2691 31.5854 18.2184 31.484C18.1727 31.3825 18.0002 30.9869 17.843 30.6115C17.6857 30.2361 17.5031 29.81 17.4372 29.6731C17.3763 29.5361 17.2495 29.2419 17.1531 29.0187C17.0618 28.7955 16.9299 28.4912 16.8691 28.3492C16.8031 28.2021 16.6915 27.9484 16.6205 27.7861C16.5495 27.6238 16.4531 27.4057 16.4075 27.3042C16.3618 27.2028 16.1792 26.7817 16.0017 26.3658C15.7024 25.6658 15.5502 25.3259 15.3422 24.8643C15.0074 24.1237 14.9364 23.9614 14.9364 23.931C14.9364 23.9107 14.8248 23.652 14.6879 23.3578C14.5509 23.0636 14.4393 22.8049 14.4393 22.7897C14.4393 22.7744 14.3784 22.6273 14.3074 22.4701C14.0234 21.8462 13.9371 21.6585 13.6581 20.994C13.3284 20.2179 13.161 19.8273 13.0342 19.5584C12.9886 19.457 12.806 19.036 12.6284 18.62C12.3342 17.9352 12.2175 17.6664 11.9741 17.1186C11.9284 17.0171 11.832 16.8041 11.7661 16.6519C11.7002 16.4997 11.6139 16.2917 11.5784 16.2004C11.5023 15.9975 11.4415 15.9874 11.3045 16.1396M73.2402 44.1045C72.6619 44.1958 71.9923 44.3378 71.8351 44.4088C71.7336 44.4545 71.5764 44.5103 71.4901 44.5356C71.4039 44.561 71.2669 44.632 71.1858 44.6979C71.1046 44.7639 71.0133 44.8146 70.988 44.8146C70.8053 44.8146 70.0749 45.4385 69.6691 45.9407C68.4618 47.4371 68.1118 50.0799 68.8372 52.2205C69.5727 54.3916 71.409 55.6901 73.7373 55.6901C76.5576 55.6901 78.5917 53.7118 78.8758 50.6886C79.0634 48.6647 78.5917 46.8741 77.567 45.753C77.1815 45.3269 76.5627 44.8146 76.4409 44.8146C76.4105 44.8146 76.3192 44.7639 76.233 44.703C76.0098 44.5356 75.4315 44.3175 75.0308 44.2516C74.838 44.216 74.5134 44.1603 74.3155 44.1298C73.9605 44.0689 73.5445 44.0588 73.2351 44.1095M50.3072 44.2972C50.0587 44.3885 49.8558 44.6929 49.521 45.4943C49.3232 45.961 49.1 46.4987 49.0188 46.6914C48.8869 47.0059 48.5471 47.8277 47.3094 50.8154C47.0608 51.4191 46.7767 52.0937 46.6854 52.3169C45.9246 54.1126 45.6811 54.772 45.7166 54.9292C45.7977 55.2894 46.092 55.5024 46.5028 55.5024C46.9137 55.5024 47.071 55.2843 47.7152 53.7575C48.0297 53.0169 48.3239 52.4031 48.3847 52.3727C48.4456 52.3423 49.4804 52.3169 50.708 52.3169C52.7268 52.3169 52.9348 52.327 53.0515 52.4285C53.1225 52.4894 53.3964 53.0575 53.6551 53.6915C54.2334 55.0865 54.3703 55.335 54.624 55.4416C55.1566 55.6648 55.7704 55.2133 55.6638 54.6756C55.6334 54.5082 54.974 52.8749 54.4363 51.627C54.3703 51.4749 54.0153 50.6277 53.6551 49.7502C53.0261 48.2386 52.6406 47.3154 52.3768 46.6864C52.3109 46.5342 52.1029 46.032 51.9102 45.5704C51.5246 44.6421 51.4587 44.5305 51.2101 44.3632C51.0377 44.2516 50.5355 44.211 50.3174 44.2921M86.0737 44.3226C85.7795 44.4646 85.7846 44.4037 85.7947 49.8669C85.7998 52.6973 85.8353 55.0814 85.8606 55.1626C85.9266 55.3401 86.2259 55.5024 86.4846 55.5024C86.7433 55.5024 87.0425 55.3401 87.1136 55.1524C87.2049 54.909 87.3215 54.914 87.8085 55.1778C89.0462 55.8524 90.71 55.7814 91.7296 55.0053C92.4549 54.4575 92.9571 53.6104 93.1499 52.6263C93.3781 51.4546 93.297 50.1712 92.9368 49.2531C92.3078 47.6552 90.8875 46.8335 89.1578 47.0617C88.5897 47.1378 88.3208 47.2342 87.5447 47.6552C87.3418 47.7668 87.2505 47.7871 87.2201 47.7313C87.1947 47.6907 87.1744 46.9755 87.1744 46.1385V44.6168L86.9918 44.4342C86.8396 44.282 86.7585 44.2516 86.5099 44.2566C86.3425 44.2566 86.1498 44.2921 86.0737 44.3276M94.834 44.3378C94.5702 44.4545 94.4434 44.6168 94.3724 44.9363C94.2861 45.3219 94.3876 45.6871 94.6361 45.9103C94.7883 46.0472 94.905 46.0878 95.1789 46.1081C95.605 46.1335 95.8688 45.9914 96.0514 45.6262C96.2137 45.3016 96.2137 45.0277 96.0362 44.7233C95.7977 44.3023 95.2803 44.14 94.834 44.3378ZM109.945 44.3429C109.869 44.3936 109.762 44.5661 109.702 44.7182C109.6 44.982 109.595 45.3422 109.636 49.8871C109.661 52.5756 109.691 54.8582 109.712 54.9648C109.732 55.0662 109.798 55.2235 109.864 55.3097C109.965 55.4466 110.031 55.4669 110.366 55.4669C110.701 55.4669 110.762 55.4517 110.919 55.2742C111.01 55.1677 111.117 55.0256 111.152 54.9648C111.218 54.8532 111.228 54.8532 111.431 55.0104C112.152 55.5582 113.405 55.7764 114.455 55.5329C115.733 55.2336 116.722 54.143 117.052 52.6618C117.158 52.1799 117.194 50.927 117.118 50.3487C116.976 49.2734 116.443 48.269 115.718 47.7161C115.251 47.361 114.896 47.2038 114.272 47.0871C113.795 47.0009 113.623 46.9958 113.095 47.0567C112.431 47.1328 112.096 47.2545 111.568 47.6045C111.386 47.7262 111.213 47.8074 111.188 47.7871C111.162 47.7668 111.132 47.0415 111.112 46.1842L111.081 44.6219L110.878 44.4392C110.711 44.2921 110.62 44.2566 110.376 44.2566C110.214 44.2566 110.016 44.2972 109.945 44.3479M134.638 44.3378C134.156 44.561 133.994 45.1545 134.273 45.7023C134.42 45.9914 134.755 46.1487 135.145 46.1183C136.272 46.0269 136.246 44.3632 135.12 44.2769C134.958 44.2668 134.75 44.2921 134.643 44.3429M72.7735 45.6211C72.5199 45.6922 72.0786 45.8798 71.7641 46.0472C71.4699 46.2045 70.851 46.8588 70.6735 47.1987C70.014 48.4821 69.9024 50.3893 70.4046 51.8756C70.7597 52.9205 71.4242 53.6104 72.4641 54.0162C72.7887 54.143 72.9409 54.1582 73.7373 54.1582C74.5337 54.1582 74.6808 54.143 75.0206 54.006C75.4619 53.8234 76.096 53.3973 76.3243 53.1285C76.6286 52.7633 76.9127 52.2104 77.0902 51.622C77.2576 51.064 77.2678 50.9727 77.2678 49.8466C77.2678 48.7813 77.2525 48.6089 77.1257 48.1929C76.7605 47.0009 76.2279 46.3212 75.3199 45.8748L74.7771 45.6059L73.8692 45.5907C73.3721 45.5806 72.88 45.5958 72.7735 45.6262M50.5 46.8233C50.4696 46.9045 50.2717 47.4016 50.0637 47.9393C49.8558 48.4719 49.5311 49.3139 49.3333 49.806C49.029 50.5872 48.9934 50.719 49.0695 50.7951C49.2065 50.9321 52.1536 50.927 52.2906 50.7901C52.3768 50.7038 52.3362 50.5719 51.9102 49.4864C51.6464 48.8219 51.2964 47.9291 51.129 47.498C50.8804 46.8588 50.7993 46.7117 50.6927 46.6965C50.5964 46.6813 50.5406 46.7219 50.5 46.8233ZM148.537 47.0922C147.624 47.29 146.691 47.9799 146.224 48.7915C145.427 50.1864 145.438 52.4031 146.254 53.8742C147.35 55.8525 150.485 56.238 152.143 54.5945C152.575 54.1684 152.793 53.793 152.793 53.4785C152.793 53.164 152.453 52.8749 152.078 52.8749C151.778 52.8749 151.677 52.951 151.2 53.5191C150.88 53.8995 150.505 54.1075 149.972 54.1988C149.425 54.2952 148.714 54.1887 148.319 53.9604C147.822 53.6713 147.431 53.0727 147.264 52.3625C147.183 52.0176 147.183 51.9567 147.264 51.8299L147.355 51.6879H149.983C152.884 51.6879 152.95 51.6778 153.102 51.3176C153.199 51.0843 153.158 50.3843 153.006 49.7502C152.904 49.3139 152.58 48.6292 152.316 48.2792C152.113 48.0103 151.484 47.5183 151.104 47.3306C150.495 47.0262 149.328 46.9197 148.537 47.0922ZM59.6153 47.1175C59.3313 47.1784 58.9255 47.3864 58.4689 47.711C58.1189 47.9545 58.0986 47.9596 58.0175 47.848C57.9718 47.782 57.9313 47.6806 57.9313 47.6248C57.9313 47.569 57.845 47.4422 57.7385 47.3407C57.5813 47.1886 57.495 47.1581 57.2414 47.1581C56.9878 47.1581 56.9066 47.1886 56.7291 47.361L56.5262 47.5639L56.5059 51.1401C56.4907 53.5495 56.5059 54.7923 56.5515 54.9445C56.587 55.0713 56.7088 55.2488 56.8153 55.3401C56.9878 55.4872 57.0537 55.5024 57.3175 55.4771C57.5407 55.4568 57.6675 55.401 57.7892 55.2793L57.9566 55.1119L57.9921 52.9104C58.0276 50.9169 58.0429 50.6734 58.1595 50.3183C58.5552 49.1212 59.3465 48.4871 60.4371 48.4871C61.1777 48.4871 61.5987 48.7205 61.8473 49.2683C61.9487 49.4915 61.9639 49.806 61.9893 52.2662C62.0146 54.3104 62.04 55.051 62.1009 55.1524C62.3139 55.5227 62.8973 55.609 63.2371 55.3198L63.4299 55.1575L63.4096 52.0227L63.3893 48.8879L63.1813 48.4668C62.9226 47.9342 62.5118 47.5284 61.9842 47.2799C61.5936 47.0973 61.5277 47.0871 60.7009 47.0668C60.219 47.0567 59.7269 47.0668 59.6052 47.0973M99.9978 47.1328C99.1963 47.2646 97.9434 48.1118 97.8065 48.6089C97.6797 49.0603 97.9079 49.4712 98.3036 49.5016C98.6485 49.527 98.75 49.4864 99.1253 49.1516C99.6884 48.6596 99.9978 48.5023 100.551 48.4313C101.956 48.2487 102.767 48.7408 102.767 49.7756C102.767 49.9937 102.747 50.2016 102.717 50.227C102.686 50.2574 102.265 50.2879 101.778 50.298C100.272 50.3285 99.0594 50.6125 98.3239 51.0995C97.9333 51.3582 97.6746 51.6676 97.4565 52.1292C97.3195 52.4183 97.2992 52.5553 97.2992 53.1184C97.2992 53.7169 97.3144 53.8082 97.4818 54.1633C97.7101 54.6401 98.1412 55.0763 98.6079 55.2894C98.9173 55.4314 99.0594 55.4517 99.8659 55.4771C100.429 55.4974 100.906 55.4771 101.109 55.4365C101.509 55.3503 102.159 55.051 102.422 54.8278C102.641 54.6401 102.762 54.6908 102.828 54.9901C102.849 55.0865 102.935 55.2387 103.016 55.33C103.143 55.4669 103.219 55.4923 103.538 55.4923C103.858 55.4923 103.934 55.472 104.076 55.3198C104.162 55.2235 104.254 55.0916 104.269 55.0206C104.284 54.9495 104.289 53.6307 104.279 52.0836C104.259 49.39 104.254 49.2531 104.122 48.8676C103.822 47.9748 103.011 47.3052 102.001 47.1226C101.586 47.0465 100.47 47.0465 99.9927 47.1226M128.921 47.1277C128.511 47.1987 127.846 47.5335 127.552 47.8176C127.41 47.9545 127.207 48.2386 127.095 48.4516C126.908 48.8118 126.892 48.8777 126.892 49.4661C126.892 50.0089 126.913 50.1408 127.045 50.4045C127.466 51.2567 128.059 51.5814 129.951 51.972C131.179 52.2256 131.584 52.5198 131.579 53.1437C131.574 53.7068 131.245 54.0669 130.6 54.214C129.738 54.4118 129.028 54.285 128.155 53.7829C127.425 53.3618 127.237 53.3415 126.913 53.6408C126.476 54.0416 126.558 54.5742 127.116 54.9749C127.268 55.0865 127.425 55.1778 127.455 55.1829C127.486 55.1829 127.628 55.2387 127.77 55.3046C128.658 55.7206 130.337 55.8372 131.255 55.538C132.117 55.259 132.766 54.6858 132.964 54.0213C133.187 53.2857 133.111 52.3372 132.787 51.8553C132.589 51.5611 132.158 51.2212 131.701 50.998C131.316 50.8154 131.163 50.7698 130.21 50.5872C128.962 50.3437 128.607 50.156 128.465 49.6741C128.384 49.3951 128.384 49.3444 128.495 49.0908C128.582 48.8879 128.698 48.756 128.916 48.619C129.216 48.4313 129.221 48.4263 129.966 48.4465C130.712 48.4668 130.722 48.4668 131.245 48.7357C131.539 48.8828 131.828 49.0502 131.894 49.111C131.975 49.1821 132.112 49.2125 132.325 49.2125C132.599 49.2125 132.665 49.1821 132.817 49.0096C132.959 48.8523 132.995 48.7509 132.995 48.5176C132.995 48.2538 132.969 48.2031 132.721 47.9697C132.3 47.5791 131.539 47.2241 130.9 47.1226C130.469 47.0516 129.342 47.0516 128.932 47.1226M140.538 47.1277C140.233 47.2038 139.838 47.4117 139.432 47.706C139.163 47.9038 139.082 47.9342 139.011 47.8733C138.96 47.8328 138.919 47.7364 138.919 47.6603C138.919 47.5842 138.833 47.4422 138.732 47.3407C138.569 47.1835 138.493 47.1581 138.194 47.1581C137.869 47.1581 137.829 47.1733 137.666 47.3712L137.489 47.5842V51.2415C137.489 54.6858 137.494 54.914 137.606 55.1169C137.758 55.401 137.956 55.5024 138.295 55.4669C138.498 55.4466 138.62 55.3858 138.762 55.2437L138.96 55.0459L138.995 52.8444C139.026 50.8408 139.041 50.6074 139.158 50.2676C139.437 49.456 139.878 48.9335 140.532 48.6342C140.827 48.5023 140.989 48.4719 141.4 48.4719C142.323 48.4719 142.78 48.8523 142.922 49.735C142.957 49.9683 142.988 51.1756 142.988 52.5705C142.988 54.914 142.988 55.0053 143.114 55.2082C143.206 55.3553 143.307 55.4264 143.459 55.4568C143.809 55.5227 144.114 55.4466 144.276 55.2488L144.418 55.0763V52.1596V49.2429L144.261 48.7357C144.124 48.2994 144.053 48.1777 143.743 47.8632C143.505 47.6197 143.236 47.427 142.952 47.29C142.531 47.0922 142.49 47.082 141.643 47.0668C141.161 47.0567 140.664 47.077 140.543 47.1074M156.232 47.1277C155.441 47.2646 154.715 47.7922 154.386 48.4719C154.076 49.1009 154.056 49.735 154.325 50.3538C154.685 51.1705 155.451 51.6321 156.917 51.9111C157.845 52.0886 157.967 52.1191 158.281 52.2814C158.723 52.5046 158.854 52.6973 158.854 53.1133C158.854 53.722 158.555 54.0821 157.926 54.2343C157.216 54.4017 156.313 54.285 155.72 53.9452C154.715 53.3771 154.654 53.3618 154.325 53.5698C153.746 53.93 153.797 54.5742 154.431 54.985C155.532 55.6952 157.282 55.9336 158.575 55.5532C159.352 55.3249 159.864 54.8887 160.194 54.1937C160.361 53.8336 160.386 53.722 160.386 53.1944C160.386 52.3981 160.254 52.0328 159.793 51.5662C159.595 51.3633 159.291 51.1451 159.073 51.0437C158.667 50.8509 157.774 50.6024 157.226 50.5314C156.836 50.4806 156.273 50.298 156.054 50.156C155.831 50.0089 155.649 49.5574 155.704 49.2784C155.76 48.9792 156.212 48.5277 156.516 48.4719C156.633 48.4516 157.033 48.4465 157.404 48.4618C158.053 48.4871 158.094 48.4973 158.575 48.756C158.849 48.9031 159.128 49.0705 159.189 49.1263C159.357 49.2784 159.864 49.2632 160.041 49.106C160.234 48.9335 160.336 48.6697 160.3 48.4364C160.229 47.9494 159.123 47.2748 158.175 47.1378C157.688 47.0668 156.628 47.0668 156.227 47.1378M163.496 47.1328C163.318 47.1632 163.065 47.2444 162.933 47.3154C162.806 47.3864 162.664 47.4422 162.618 47.4422C162.471 47.4422 161.746 48.2183 161.604 48.5378C161.391 49.0096 161.36 49.8009 161.538 50.2574C161.878 51.1096 162.613 51.6118 163.871 51.8502C165.195 52.0988 165.636 52.2509 165.921 52.5502C166.382 53.0473 166.073 53.9858 165.378 54.1937C164.941 54.3256 164.287 54.3408 163.785 54.2394C163.46 54.1734 163.131 54.0365 162.694 53.793C162.349 53.6002 162.01 53.4481 161.939 53.443C161.781 53.443 161.325 53.7626 161.228 53.935C160.843 54.6553 162.07 55.4822 163.851 55.6952C164.865 55.8169 165.946 55.6343 166.575 55.2387C166.925 55.0206 167.275 54.6097 167.468 54.1988C167.615 53.8894 167.63 53.7676 167.635 53.1589C167.635 52.2712 167.513 51.972 166.93 51.4393C166.707 51.2364 166.499 51.069 166.468 51.069C166.438 51.069 166.286 51.0133 166.134 50.9422C165.844 50.8103 165.707 50.7748 164.794 50.6024C163.455 50.3487 162.983 50.0495 162.983 49.4611C162.983 49.0755 163.181 48.7763 163.562 48.5886C163.8 48.4719 163.942 48.4465 164.515 48.4465C165.089 48.4465 165.236 48.4668 165.54 48.6038C165.733 48.69 165.931 48.7864 165.981 48.8219C166.032 48.8523 166.199 48.9589 166.357 49.0553C166.757 49.3038 167.178 49.2937 167.392 49.04C167.899 48.4161 167.518 47.9038 166.088 47.3002C165.601 47.0922 164.277 47.0161 163.501 47.1429M80.3214 47.2444C80.1845 47.3306 80.0982 47.4473 80.0526 47.6197C80.0069 47.7922 79.9917 49.0248 80.0019 51.4495C80.0171 54.7466 80.0272 55.0408 80.1287 55.193C80.4026 55.5988 81.1483 55.5887 81.3664 55.1778C81.412 55.0916 81.4425 54.3408 81.4475 52.8799C81.4577 50.8357 81.4678 50.6937 81.5997 50.3183C81.9599 49.2835 82.599 48.761 83.578 48.7002C84.0142 48.6748 84.1106 48.6444 84.2932 48.4922C84.486 48.335 84.5113 48.2741 84.5316 47.9393C84.557 47.5791 84.5519 47.5538 84.3389 47.3458C84.1208 47.1277 84.1106 47.1277 83.6084 47.1277C83.1823 47.1277 83.0251 47.1581 82.6497 47.3204C82.4012 47.427 82.0562 47.6248 81.8736 47.7618C81.6961 47.8987 81.5185 47.9951 81.483 47.9748C81.4475 47.9545 81.4019 47.8429 81.3816 47.7262C81.2903 47.2545 80.712 46.9958 80.3113 47.2494M118.766 47.1835C118.695 47.2139 118.584 47.2951 118.518 47.3762C118.396 47.5132 118.391 47.6045 118.391 50.4908V53.4684L118.548 53.8944C118.868 54.7669 119.497 55.3148 120.455 55.5582C121.089 55.7155 121.409 55.7206 122.002 55.5887C122.505 55.4771 122.905 55.2894 123.362 54.9597C123.707 54.7111 123.824 54.7162 123.884 54.9952C123.945 55.2792 124.245 55.5024 124.564 55.5024C124.909 55.5024 125.097 55.3959 125.239 55.1271C125.35 54.9242 125.355 54.6959 125.355 51.3125C125.355 47.919 125.35 47.706 125.239 47.5436C124.939 47.0871 124.478 47.0212 124.042 47.3712L123.884 47.4929L123.844 49.7299C123.803 51.8857 123.798 51.9821 123.651 52.3727C123.57 52.5959 123.448 52.8749 123.377 52.9966C123.195 53.3263 122.708 53.7829 122.337 53.9756C122.048 54.1227 121.931 54.1481 121.414 54.1481C120.897 54.1481 120.785 54.1329 120.557 54.001C120.212 53.8031 119.984 53.4481 119.913 53.0068C119.882 52.814 119.852 51.5256 119.852 50.1509C119.852 47.7871 119.847 47.64 119.73 47.4675C119.664 47.3661 119.542 47.2494 119.466 47.2038C119.304 47.1125 118.949 47.1023 118.761 47.1784M94.7782 47.3154C94.6869 47.3864 94.5854 47.5487 94.5499 47.6755C94.5042 47.8328 94.489 49.0553 94.4992 51.4698L94.5195 55.0307L94.6716 55.2336C94.768 55.3655 94.8999 55.4517 95.0318 55.4771C95.3716 55.543 95.6405 55.4568 95.8079 55.2336L95.9601 55.0307L95.9753 51.3328L95.9905 47.6349L95.7927 47.4117C95.6151 47.2088 95.5695 47.1886 95.2702 47.1886C95.0318 47.1886 94.8948 47.2241 94.7782 47.3154ZM134.664 47.2494C134.608 47.2799 134.516 47.3813 134.461 47.4675C134.369 47.6096 134.359 47.9799 134.359 51.3227C134.359 54.9343 134.364 55.0256 134.491 55.2235C134.719 55.5938 135.358 55.5938 135.643 55.2235L135.8 55.0155V47.5741L135.577 47.3813C135.394 47.2241 135.303 47.1886 135.059 47.1886C134.897 47.1886 134.719 47.219 134.664 47.2494ZM148.953 48.4313C148.359 48.5429 147.817 49.0045 147.497 49.6741C147.289 50.1103 147.284 50.1357 147.385 50.2828L147.487 50.4401H149.48C151.449 50.4401 151.479 50.4401 151.57 50.3082C151.657 50.1864 151.651 50.1458 151.555 49.8821C151.317 49.248 150.977 48.8473 150.454 48.5784C150.175 48.4313 149.374 48.3552 148.953 48.4364M88.5795 48.5835C87.915 48.8726 87.565 49.2734 87.3063 50.0343C87.1795 50.4096 87.1592 50.5872 87.1643 51.2821C87.1643 51.977 87.1896 52.1596 87.3215 52.535C87.5701 53.2502 87.8947 53.6662 88.4578 54.001C88.6658 54.1227 88.8179 54.1531 89.3455 54.1734C89.9187 54.1988 90.015 54.1836 90.3143 54.0466C91.06 53.7017 91.4912 53.0372 91.6585 51.9669C91.7549 51.3531 91.7549 51.2669 91.6484 50.6379C91.5875 50.2676 91.4709 49.8263 91.3897 49.6538C91.1969 49.2379 90.781 48.7966 90.3955 48.5987C90.1216 48.4567 90.01 48.4364 89.4875 48.4364C89.0158 48.4364 88.8281 48.4668 88.5744 48.5784M112.375 48.619C111.837 48.8777 111.497 49.248 111.264 49.8161C111.081 50.2625 111.076 50.3132 111.076 51.277C111.076 52.1749 111.091 52.3067 111.218 52.5807C111.294 52.7481 111.355 52.9104 111.355 52.9408C111.355 53.0169 111.807 53.6205 111.954 53.7473C112.355 54.0821 112.694 54.1887 113.364 54.1887C114.267 54.1887 114.84 53.7981 115.297 52.885L115.51 52.464V51.3075V50.1509L115.312 49.735C115.078 49.2379 114.764 48.8726 114.368 48.6444C114.115 48.4973 113.993 48.4719 113.42 48.4516C112.796 48.4263 112.745 48.4364 112.375 48.6139M100.86 51.627C99.8659 51.764 99.2978 51.9922 99.0137 52.3778C98.8869 52.5553 98.8615 52.6568 98.8615 53.022C98.8615 53.8387 99.2065 54.1278 100.191 54.1278C100.672 54.1278 100.845 54.1024 101.17 53.9655C101.667 53.7626 101.824 53.6662 102.164 53.3466C102.514 53.0169 102.727 52.5908 102.778 52.1241C102.833 51.5763 102.808 51.556 101.93 51.5662C101.53 51.5662 101.048 51.5966 100.86 51.622M169.182 53.4176C168.939 53.4684 168.492 53.9705 168.447 54.2445C168.325 54.9698 168.974 55.614 169.679 55.4771C169.928 55.4264 170.161 55.2336 170.349 54.9191C170.613 54.4829 170.425 53.8387 169.943 53.5242C169.786 53.4176 169.41 53.3669 169.182 53.4176Z" fill="white"/>
</svg>
