<svg width="257" height="41" viewBox="0 0 257 41" fill="none" xmlns="http://www.w3.org/2000/svg">
<path fill-rule="evenodd" clip-rule="evenodd" d="M98.662 4.54102H96.0844L79.2598 35.9771H83.1893C84.6605 31.8024 86.6283 28.489 88.4705 24.4338H102.227C104.314 28.6085 106.282 32.2928 107.879 35.9771H114.877L98.6683 4.54102H98.662ZM101.366 21.9755H89.577L95.4745 10.4321L101.372 21.9755H101.366Z" fill="#DDDDDD"/>
<path fill-rule="evenodd" clip-rule="evenodd" d="M6.9253 6.87406C9.1384 6.74832 11.1 6.62886 13.1873 6.87406C17.2426 7.49021 19.0848 9.45183 19.0848 12.6457C19.0848 16.0848 16.136 18.2917 12.2065 19.0335C9.38354 19.5239 7.66091 19.2787 6.9253 19.2787V6.87406ZM0.417969 35.9776H6.9253V20.9952H7.2963L11.5967 25.1699L17.9846 32.0481C19.0911 33.2741 20.1977 34.6258 21.298 35.9776H27.56L26.5792 34.8711L24.0013 32.2933L12.8291 20.6242C18.2298 19.7629 24.4981 17.9207 24.4981 12.6394C24.4981 8.09379 20.1976 5.15137 11.974 5.15137H0.430555V35.9776H0.417969Z" fill="#DDDDDD"/>
<path fill-rule="evenodd" clip-rule="evenodd" d="M47.6981 4.54102H45.2397L28.2957 35.9771H32.2252C33.6964 31.8024 35.6643 28.489 37.6259 24.4338H51.2566C53.4697 28.6085 55.4313 32.2928 56.9088 35.9771H63.9066L47.6981 4.54102ZM50.521 21.9755H38.6068L44.5041 10.4321L50.521 21.9755Z" fill="#DDDDDD"/>
<path fill-rule="evenodd" clip-rule="evenodd" d="M65.2583 35.9772H71.7656V21.2399H84.4154V18.6622H71.7656V7.98019H85.7671V5.15723H65.2583V35.9835V35.9772Z" fill="#DDDDDD"/>
<path fill-rule="evenodd" clip-rule="evenodd" d="M122.975 7.97433H136.977V5.15137H116.594V35.8519H137.348V33.0289H122.981V21.2404H135.751V18.6626H122.981V7.98062L122.975 7.97433Z" fill="#DDDDDD"/>
<path fill-rule="evenodd" clip-rule="evenodd" d="M147.413 5.15137C146.552 5.27711 144.1 5.15137 143.358 5.15137C142.616 5.15137 141.761 5.27711 141.025 5.15137V35.8519H162.641V33.0289H147.413V5.15137Z" fill="#DDDDDD"/>
<path fill-rule="evenodd" clip-rule="evenodd" d="M256.679 20.5668C256.679 9.39437 237.151 0.183594 212.958 0.183594C209.399 0.183594 205.96 0.428795 202.766 0.799741C204.979 0.673997 207.312 0.55454 209.644 0.55454C233.347 0.55454 252.379 9.39437 252.379 20.4473C252.379 31.5002 233.341 40.3401 209.644 40.3401C203.502 40.3401 197.485 39.7239 192.204 38.6237C198.346 40.0949 205.47 40.9562 212.958 40.9562C237.151 40.9562 256.679 31.8712 256.679 20.573V20.5668Z" fill="#DDDDDD"/>
<path fill-rule="evenodd" clip-rule="evenodd" d="M232.36 6.07494C225.852 3.74238 217.748 2.39062 209.028 2.39062C187.783 2.39062 170.588 10.3754 170.588 20.3218C170.588 30.2682 186.431 38.1272 209.028 38.1272C214.183 38.1272 219.219 37.6368 223.765 36.7754C219.955 37.3916 215.906 37.7562 211.731 37.7562C210.015 37.7562 208.292 37.6305 206.576 37.511L221.558 22.4091H236.415L240.715 20.3218L236.415 18.3539H221.558L206.576 3.37143C208.173 3.24569 209.889 3.12623 211.731 3.12623C219.345 3.12623 226.468 4.23278 232.36 6.07494ZM205.834 37.511C200.924 37.1401 196.252 36.285 192.077 35.0527L205.834 21.1768V37.511ZM188.028 33.7073C179.798 30.6391 174.517 25.8482 174.517 20.4412C174.517 15.0342 179.918 10.1239 188.274 7.05574L199.817 18.3539H188.89V22.1576H199.817L188.028 33.701V33.7073ZM192.329 5.70399C196.384 4.59744 200.924 3.73609 205.84 3.37143V19.3347L192.329 5.70399Z" fill="#DDDDDD"/>
</svg>
