<svg width="285" height="35" viewBox="0 0 285 35" fill="none" xmlns="http://www.w3.org/2000/svg">
<path d="M282.766 4.44792C282.766 4.19232 282.654 3.88061 282.112 3.88061H281.376V5.76334H281.737V5.009H281.962L282.461 5.76334H282.841L282.323 4.97783C282.592 4.9529 282.791 4.71599 282.779 4.44792M281.731 4.67236V4.21726H282.062C282.311 4.21726 282.405 4.2796 282.405 4.43546C282.405 4.64118 282.274 4.67236 281.981 4.67236H281.731ZM282.006 2.73975C280.865 2.73975 279.942 3.66865 279.942 4.80951C279.942 5.95037 280.865 6.87926 282.006 6.87926C283.147 6.87926 284.075 5.95037 284.075 4.80951C284.075 3.66865 283.153 2.74599 282.012 2.73975M282.006 6.54261C281.046 6.56132 280.26 5.80074 280.241 4.84691C280.223 3.89308 280.983 3.10134 281.937 3.08264C282.897 3.06393 283.683 3.82451 283.702 4.77834C283.702 4.79081 283.702 4.80327 283.702 4.80951C283.714 5.75711 282.953 6.53015 282.006 6.54261ZM162.795 22.9822C162.795 27.1529 158.955 30.2762 153.837 30.2762C148.345 30.2762 144.436 27.5332 143.762 22.8513H148.856C149.566 24.7839 151.512 25.9684 153.55 25.7252C156.106 25.7252 157.627 24.6405 157.627 23.0321C157.627 18.0509 144.217 22.0782 144.217 13.2693C144.217 9.24202 147.578 6.1561 152.983 6.1561C158.032 6.1561 161.617 8.73082 162.384 13.0885H157.022C156.661 11.7482 155.495 10.5574 152.895 10.5574C150.813 10.5574 149.342 11.4552 149.342 12.9264C149.342 17.6145 162.808 13.3067 162.808 22.9822M170.351 0.707405H165.227V21.4361C165.227 27.1092 168.518 30.2326 173.456 30.2326C174.391 30.2388 175.313 30.0892 176.199 29.7899V25.2016C175.675 25.4135 175.114 25.5195 174.553 25.507C172.496 25.7689 170.619 24.3163 170.358 22.259C170.32 21.9847 170.32 21.7042 170.345 21.4236V11.3367H176.199V6.63613H170.333L170.345 0.701172L170.351 0.707405ZM50.4487 12.6334C50.4487 10.5325 52.425 8.89914 55.3301 8.89914C57.936 8.68094 60.249 10.5512 60.5857 13.1446H63.3972C63.1416 9.03006 59.6007 5.90049 55.4924 6.1561C55.4363 6.1561 55.3738 6.16233 55.3177 6.16856C51.4151 6.16856 47.6309 8.43158 47.6309 12.6646C47.6309 21.5982 61.1217 17.0971 61.1217 23.4248C61.1217 25.2889 59.4696 27.5456 55.7353 27.5456C52.7741 27.5456 49.9875 25.8811 49.9875 22.87H47.1697C47.1697 27.3274 50.8666 30.2887 55.7417 30.2887C61.1779 30.2887 63.9335 26.7352 63.9335 23.4373C63.9335 14.0673 50.4426 18.5247 50.4426 12.6459M140.969 6.65483V29.7837H138.183V25.7814C136.007 28.6865 132.553 30.3573 128.925 30.27C122.36 30.3198 116.999 25.0395 116.949 18.4749C116.949 18.3876 116.949 18.3003 116.949 18.213C116.855 11.6484 122.098 6.24961 128.663 6.1561C128.75 6.1561 128.838 6.1561 128.925 6.1561C132.553 6.06882 136.001 7.73958 138.183 10.6447V6.6486L140.969 6.66107V6.65483ZM138.195 18.2193C138.307 13.182 134.318 9.01136 129.28 8.89914C129.193 8.89914 129.106 8.89914 129.018 8.89914C123.869 8.97395 119.754 13.2007 119.829 18.3502C119.898 23.3937 123.975 27.4708 129.018 27.5394C134.056 27.5768 138.164 23.5183 138.201 18.4873C138.201 18.4001 138.201 18.3128 138.201 18.2255M115.023 0.701172V29.7899H112.236V25.7876C110.054 28.6927 106.607 30.3635 102.978 30.2762C96.4136 30.3261 91.0522 25.0457 91.0024 18.4811C91.0024 18.3938 91.0024 18.3065 91.0024 18.2193C90.9089 11.6547 96.1518 6.25584 102.716 6.16233C102.804 6.16233 102.891 6.16233 102.978 6.16233C106.607 6.07505 110.054 7.74582 112.236 10.651V0.707405H115.023V0.701172ZM112.242 18.2193C112.354 13.182 108.365 9.01136 103.327 8.89914C103.24 8.89914 103.153 8.89914 103.059 8.89914C97.916 8.97395 93.8016 13.2007 93.8702 18.3502C93.9387 23.3937 98.0157 27.4708 103.059 27.5394C108.096 27.5768 112.205 23.5183 112.242 18.4873C112.242 18.4001 112.242 18.3128 112.242 18.2255M237.138 6.6486H242.051V29.7899H237.138V27.4147C235.106 29.3099 232.406 30.3385 229.626 30.2762C223.092 30.2637 217.806 24.9584 217.818 18.425C217.818 18.3564 217.818 18.2878 217.818 18.2193C217.694 11.6858 222.887 6.28701 229.414 6.16233C229.483 6.16233 229.551 6.16233 229.62 6.16233C232.4 6.09999 235.093 7.1224 237.132 9.01759V6.65483L237.138 6.6486ZM237.306 18.2193C237.387 14.2606 234.246 10.9876 230.287 10.9128C230.187 10.9128 230.087 10.9128 229.981 10.9128C225.941 10.9751 222.725 14.298 222.787 18.3377C222.849 22.284 226.035 25.4696 229.981 25.532C233.94 25.6193 237.213 22.4835 237.3 18.5247C237.3 18.425 237.3 18.3253 237.3 18.2193M89.5062 18.2193C89.5062 24.8774 84.1072 30.2762 77.4491 30.2762C70.7909 30.2762 65.3922 24.8774 65.3922 18.2193C65.3922 11.5611 70.7909 6.16233 77.4491 6.16233C84.0511 6.10622 89.4501 11.4178 89.5062 18.0198C89.5062 18.0884 89.5062 18.1569 89.5062 18.2255M86.6634 18.2193C86.6073 13.1322 82.4302 9.055 77.3431 9.11111C72.256 9.16721 68.179 13.3441 68.2351 18.4312C68.2912 23.4747 72.3994 27.5394 77.4491 27.5394C82.5611 27.4958 86.6821 23.3313 86.6634 18.2193ZM192.439 6.18727C189.359 5.85685 186.342 7.23461 184.571 9.77817V6.6486H179.677V29.7899H184.752V20.314C184.684 18.8115 184.802 17.3028 185.114 15.8253C186.068 12.6584 189.172 10.651 192.451 11.0749L192.439 6.18727ZM216.172 18.2193C216.172 18.8115 216.135 19.4038 216.067 19.996H197.457C198.012 23.3064 200.942 25.6941 204.296 25.5632C206.578 25.8312 208.822 24.7839 210.082 22.8637H215.624C213.922 27.583 209.302 30.6066 204.303 30.2824C197.644 30.3635 192.177 25.0332 192.096 18.3689C192.015 11.7108 197.345 6.24337 204.01 6.16233C204.109 6.16233 204.209 6.16233 204.303 6.16233C210.68 5.96907 216.004 10.9751 216.197 17.3527C216.204 17.6457 216.204 17.9325 216.191 18.2255M197.62 15.7692H210.786C210.163 12.7332 207.37 10.6385 204.278 10.8879C201.185 10.7569 198.418 12.783 197.607 15.7692M280.404 15.5199C280.404 10.5574 277.417 6.1561 271.663 6.1561C268.615 6.01271 265.691 7.37176 263.833 9.79687C262.412 7.50892 259.899 6.13116 257.212 6.1561C254.6 6.07505 252.081 7.1411 250.317 9.06747V6.64236H245.367V29.7837H250.492V17.1595C250.455 16.1745 250.573 15.1832 250.853 14.2356C251.533 12.2656 253.384 10.944 255.473 10.9564C258.839 10.9564 260.348 13.1197 260.348 16.4051V29.7837H265.473V17.1283C265.435 16.1495 265.56 15.177 265.834 14.2356C266.507 12.2718 268.359 10.9502 270.435 10.9564C273.801 10.9564 275.31 13.1197 275.31 16.4051V29.7837H280.435L280.422 15.5199H280.404Z" fill="#DDDDDD"/>
<path d="M0.469238 17.5705C0.469238 8.03216 8.19977 0.301758 17.7381 0.301758C27.2764 0.301758 35.0066 8.03216 35.0066 17.5705C35.0066 27.1088 27.2764 34.8392 17.7381 34.8392C8.19977 34.8392 0.469238 27.1088 0.469238 17.5705ZM30.6552 20.245C30.6614 20.0143 30.6677 19.7712 30.6677 19.528C30.942 12.2527 25.2688 6.13073 17.9935 5.85643C17.8937 5.85643 17.8003 5.85019 17.7067 5.85019C13.1184 5.85019 9.72708 8.0384 9.72708 11.3238C9.72708 13.1193 10.8054 15.1703 14.3963 15.1703C16.7965 15.1703 18.4362 14.3723 21.3788 14.3723C25.3874 14.2352 29.0719 16.5668 30.6616 20.2512M25.7491 23.8234C25.7491 22.0279 24.6704 19.9769 21.0795 19.9769C18.6794 19.9769 17.0397 20.7749 14.0971 20.7749C10.0885 20.9058 6.40418 18.5742 4.8207 14.8898C4.81446 15.1204 4.80822 15.3636 4.80822 15.6067C4.52768 22.882 10.201 29.004 17.4763 29.2845C17.5761 29.2845 17.6758 29.2908 17.7755 29.2908C22.3639 29.2908 25.7491 27.1026 25.7491 23.8172M24.1406 31.8032C27.4385 30.5252 29.6204 27.3582 29.6391 23.8234C29.664 19.5343 26.2102 16.0306 21.9148 16.0057C21.734 16.0057 21.5533 16.0057 21.3788 16.0182C18.6232 16.0182 17.0147 16.8161 14.3963 16.8161C9.88278 16.8161 8.06869 14.0357 8.06869 11.3176C8.06869 7.22795 11.934 4.18566 17.7131 4.18566C25.9111 4.29788 32.4631 11.037 32.3446 19.235C32.3446 19.3348 32.3448 19.4345 32.3385 19.528C32.3635 21.2985 32.1141 23.0628 31.5967 24.7585C35.5679 17.1092 32.588 7.68305 24.9324 3.71186C20.6994 1.51119 15.687 1.37404 11.3356 3.33158C8.03767 4.60959 5.86174 7.77033 5.8368 11.3051C5.81186 15.5942 9.26569 19.0979 13.5611 19.1228C13.7418 19.1228 13.9226 19.1228 14.0971 19.1041C16.8526 19.1041 18.4612 18.3061 21.0795 18.3061C25.5931 18.3061 27.4072 21.0866 27.4072 23.8172C27.4072 27.9068 23.542 30.9491 17.7691 30.9491C9.57117 30.8306 3.0192 24.0977 3.13765 15.8997C3.13765 15.8 3.1375 15.7002 3.14373 15.5942C3.1188 13.8237 3.36827 12.0595 3.87948 10.3638C-0.0917056 18.0193 2.89429 27.4392 10.5499 31.4104C14.7829 33.6048 19.7892 33.7482 24.1406 31.7907" fill="#DDDDDD"/>
</svg>
