<svg width="218" height="67" viewBox="0 0 218 67" fill="none" xmlns="http://www.w3.org/2000/svg">
<path d="M97.0463 17.3545L91.5835 23.1989V39.9638C91.5835 41.2673 91.8643 42.2846 92.5161 42.8357C93.438 43.853 95.2872 44.3193 97.7935 44.1391L100.384 44.0385V39.9638H99.2824C98.1644 39.9638 97.5126 39.879 97.2477 39.6936C97.0517 39.4975 96.9669 38.9412 96.9669 38.1093V26.9874H100.39V23.0982H96.9669L97.0516 17.3545H97.0463Z" fill="white"/>
<path d="M87.9751 33.1976C87.3234 32.7313 86.5762 32.3604 85.8397 32.0955C85.0026 31.8147 84.1707 31.5285 83.3335 31.3431C82.4963 31.1576 81.6644 30.9775 80.9279 30.792C80.0907 30.6066 79.4443 30.4264 78.7925 30.241C78.1408 30.0449 77.6904 29.7747 77.3195 29.4038C76.938 29.0223 76.7526 28.6514 76.7526 28.1003C76.7526 27.634 76.8532 27.2631 77.0333 27.083C77.2241 26.8021 77.4997 26.6167 77.8706 26.5319C78.1408 26.3465 78.5223 26.2511 78.8879 26.2511C79.2535 26.2511 79.6244 26.1504 79.99 26.1504C81.0074 26.1504 81.94 26.3465 82.6765 26.7174C83.4289 27.083 83.8951 27.8195 83.9799 29.0223H89.5382C89.4375 27.7347 89.0719 26.6167 88.5209 25.7C87.9698 24.8628 87.2174 24.1157 86.3855 23.5647C85.5483 23.0136 84.531 22.6427 83.5137 22.4467C82.4964 22.2612 81.2935 22.0811 80.1914 22.0811C79.0893 22.0811 77.8706 22.1817 76.8533 22.3619C75.7352 22.5473 74.8185 22.9129 73.8807 23.464C73.0435 24.031 72.3123 24.6827 71.7612 25.5994C71.1943 26.4365 70.9241 27.634 70.9241 29.0223C70.9241 29.9548 71.1095 30.792 71.4751 31.4438C71.8407 32.0955 72.3123 32.6465 72.9587 33.0122C73.6104 33.4784 74.347 33.7487 75.0782 34.0295C75.9153 34.3103 76.7472 34.4958 77.5844 34.766C79.6191 35.2323 81.2935 35.6032 82.491 36.0695C83.609 36.5358 84.2608 37.1875 84.2608 38.1041C84.2608 38.6711 84.0753 39.1215 83.8952 39.4076C83.6143 39.7732 83.3282 40.0593 82.9626 40.2448C82.597 40.4303 82.2261 40.6104 81.7598 40.7111C81.2935 40.7959 80.9226 40.8965 80.4564 40.8965C79.9053 40.8965 79.3542 40.7959 78.7872 40.7111C78.2362 40.5256 77.7699 40.3296 77.399 40.0593C77.0334 39.7785 76.6624 39.4076 76.3816 38.9413C76.1008 38.4751 76.016 37.924 76.016 37.2723H70.4578C70.5425 38.7559 70.8233 39.8739 71.4751 40.8912C72.0261 41.8132 72.7786 42.6451 73.7959 43.1961C74.7179 43.7631 75.7352 44.2135 76.938 44.4996C78.1408 44.7857 79.3595 44.8652 80.557 44.8652C81.7545 44.8652 82.9626 44.7804 84.1654 44.4996C85.2834 44.2188 86.3855 43.8479 87.3181 43.2968C88.24 42.7458 88.9871 41.9086 89.5382 40.976C90.0892 40.0541 90.3754 38.8566 90.3754 37.4524C90.3754 36.4351 90.1899 35.6032 89.8243 34.9621C89.0719 34.2096 88.6215 33.6586 87.9698 33.1923L87.9751 33.1976Z" fill="white"/>
<path fill-rule="evenodd" clip-rule="evenodd" d="M134.391 43.1961V44.0333H128.462C128.277 43.5829 128.181 43.1961 128.081 42.8305C127.996 42.4649 127.895 41.9933 127.895 41.5429C127.159 42.3801 126.327 43.1113 125.304 43.6624C124.101 44.3141 122.713 44.6797 121.23 44.6797C119.28 44.6797 117.706 44.1287 116.503 43.1113C115.3 41.9933 114.649 40.5203 114.649 38.4697C114.649 35.8787 115.666 33.9447 117.706 32.8267C118.723 32.2756 120.392 31.8093 122.517 31.5232L124.372 31.253C125.389 31.1523 126.041 30.9721 126.507 30.7867C127.344 30.4211 127.71 29.9495 127.71 29.2183C127.71 28.3811 127.344 27.7347 126.788 27.4485C126.136 27.1677 125.203 26.9823 124.101 26.9823C122.798 26.9823 121.881 27.2631 121.314 27.9148C120.949 28.3811 120.763 29.0169 120.578 29.8541H115.3C115.385 27.9996 115.936 26.5319 116.869 25.3132C118.347 23.464 120.848 22.542 124.366 22.542C126.602 22.542 128.822 22.9076 130.576 23.8455C132.346 24.7674 133.263 26.5319 133.263 29.0222V41.0766C133.263 41.8132 133.363 42.2794 133.544 42.5603C133.729 42.8305 134.01 43.0106 134.381 43.1961H134.391ZM127.63 33.7486C127.35 34.0295 126.979 34.2149 126.613 34.3156C126.231 34.4004 125.776 34.5858 125.129 34.6812L123.826 34.962C122.724 35.1475 121.887 35.4124 121.32 35.6985C120.482 36.1648 120.032 37.002 120.032 38.0193C120.032 38.9413 120.302 39.5877 120.869 40.054C121.42 40.5203 122.072 40.7057 122.809 40.7057C124.011 40.7057 125.129 40.4249 126.147 39.6884C127.164 38.936 127.715 37.7385 127.715 35.884L127.63 33.7486Z" fill="white"/>
<path d="M143.743 40.1443H143.378C142.276 40.1443 141.624 40.0595 141.343 39.874C141.158 39.6886 141.062 39.1216 141.062 38.2898V27.1838H144.501V23.2787H141.062V17.4502L135.885 23.2787V40.0542C135.885 41.3577 136.156 42.375 136.807 42.9261C137.645 43.7633 138.943 44.2295 141.163 44.3143C144.501 44.415 145.704 44.1289 145.704 44.1289C144.687 43.0108 144.035 41.7233 143.754 40.139L143.743 40.1443Z" fill="white"/>
<path fill-rule="evenodd" clip-rule="evenodd" d="M165.43 43.111V43.9482H159.501C159.316 43.4819 159.221 43.111 159.12 42.7454C159.035 42.3798 158.934 41.9082 158.934 41.4419C158.198 42.2791 157.366 43.0103 156.343 43.5773C155.141 44.2131 153.752 44.5946 152.269 44.5946C150.319 44.5946 148.745 44.1283 147.542 43.0103C146.339 41.9082 145.688 40.4193 145.688 38.3846C145.688 35.7936 146.705 33.8437 148.745 32.7257C149.762 32.1746 151.432 31.7083 153.556 31.4381L155.411 31.1573C156.444 31.0725 157.08 30.8764 157.546 30.691C158.383 30.3254 158.749 29.8538 158.749 29.1226C158.749 28.2854 158.383 27.639 157.827 27.3687C157.175 27.0879 156.243 26.9024 155.141 26.9024C153.837 26.9024 152.92 27.1727 152.353 27.8244C151.988 28.2907 151.802 28.9424 151.617 29.7743H146.339C146.424 27.9198 146.991 26.4362 147.908 25.2334C149.386 23.3736 151.887 22.4463 155.406 22.4463C157.642 22.4463 159.761 22.9126 161.531 23.8451C163.285 24.7671 164.217 26.5315 164.217 29.0219V41.0763C164.217 41.8128 164.302 42.2791 164.487 42.5599C164.768 42.8302 164.954 43.0103 165.42 43.111H165.43ZM158.669 33.7483C158.389 34.0291 158.018 34.2146 157.652 34.3152C157.287 34.4 156.815 34.5855 156.168 34.6809L154.865 34.9617C153.763 35.1471 152.926 35.4121 152.359 35.6982C151.522 36.1645 151.071 37.0017 151.071 38.019C151.071 38.941 151.341 39.5874 151.908 40.0537C152.459 40.52 153.111 40.7054 153.848 40.7054C155.051 40.7054 156.168 40.4246 157.186 39.6881C158.203 38.9357 158.754 37.7382 158.754 35.8836L158.669 33.7483Z" fill="white"/>
<path d="M169.039 28.7517C169.039 26.6164 170.623 25.2281 173.68 25.2281C176.738 25.2281 178.772 26.3302 179.239 29.5836H181.644C181.093 24.942 178.121 23.0928 173.68 23.0928C169.24 23.0928 166.453 25.599 166.453 29.022C166.453 37.0865 179.61 32.9112 179.61 38.8562C179.61 40.8909 178.041 42.6501 174.518 42.6501C170.994 42.6501 169.139 41.3466 168.392 37.8389H166.087C166.273 41.7281 169.044 44.7854 173.866 44.7854C178.688 44.7854 182.201 42.7507 182.201 38.7609C182.301 30.8818 169.044 34.3206 169.044 28.757L169.039 28.7517Z" fill="white"/>
<path d="M203.411 28.7517C203.411 26.6164 204.98 25.2281 208.053 25.2281C211.126 25.2281 213.145 26.3302 213.601 29.5836H216.022C215.455 24.942 212.499 23.0928 208.058 23.0928C203.618 23.0928 200.831 25.599 200.831 29.022C200.831 37.0865 213.988 32.9112 213.988 38.8562C213.988 40.8909 212.403 42.6501 208.88 42.6501C205.356 42.6501 203.518 41.3466 202.686 37.8389H200.365C200.55 41.7281 203.321 44.7854 208.143 44.7854C212.965 44.7854 216.489 42.7507 216.489 38.7609C216.674 30.8818 203.417 34.3206 203.417 28.757L203.411 28.7517Z" fill="white"/>
<path d="M197.954 23.6602L191.378 41.2569L184.702 23.6602H182.111L190.074 44.3143V44.4997L188.04 50.1587H190.546L200.465 23.6602H197.959H197.954Z" fill="white"/>
<path d="M114.108 22.642C112.439 22.642 111.136 23.0924 110.118 23.9296C109.467 24.4965 108.73 25.4132 107.898 26.8015V23.1931H102.706V44.128H108.168V34.0288C108.168 32.3597 108.365 31.1569 108.82 30.3198C109.573 28.8361 111.04 28.1844 113.276 28.1844H114.564V22.6367H114.114L114.108 22.642Z" fill="white"/>
<path fill-rule="evenodd" clip-rule="evenodd" d="M217.956 24.3962C217.956 25.1328 217.405 25.6997 216.668 25.6997C215.932 25.6997 215.365 25.1328 215.365 24.3962C215.365 23.6597 215.916 23.0928 216.668 23.0928C217.421 23.0928 217.956 23.6597 217.956 24.3962ZM217.686 24.3962C217.686 23.8452 217.219 23.3789 216.668 23.3789C216.117 23.3789 215.651 23.8452 215.651 24.3962C215.651 24.9473 216.101 25.4136 216.668 25.4136C217.235 25.4136 217.686 24.9473 217.686 24.3962Z" fill="white"/>
<path fill-rule="evenodd" clip-rule="evenodd" d="M217.124 24.683V24.9532H216.854V24.683C216.854 24.5823 216.854 24.4975 216.668 24.4975H216.388V24.9479H216.107V23.7451H216.759C216.944 23.7451 217.124 23.9306 217.124 24.1107C217.124 24.2114 217.124 24.2962 216.939 24.3916C217.124 24.3916 217.124 24.577 217.124 24.6724V24.683ZM216.939 24.116C216.939 23.9306 216.854 23.9306 216.753 23.9306H216.483V24.2962H216.753C216.854 24.2962 216.939 24.2114 216.939 24.1107V24.116Z" fill="white"/>
<path fill-rule="evenodd" clip-rule="evenodd" d="M41.0395 33.5628L53.5443 44.0329L26.8656 66.372L0.187012 44.0329L12.6917 33.5628L0.187012 23.0927L26.8656 0.769531L53.5443 23.0927L41.0395 33.5628ZM4.90806 45.0503L25.7583 62.5623V45.0503H4.90806ZM23.8931 42.9308L14.4456 34.967L4.91336 42.9308H23.8984H23.8931ZM27.9678 62.5623L48.9027 45.0503H27.9678V62.5623ZM27.9678 21.9906H48.9027L27.9678 4.47858V21.9906ZM25.8271 21.9906V4.47858L4.89214 21.9906H25.8271ZM4.89214 24.2107L25.7424 41.7227V24.2107H4.89214ZM39.3545 32.1905L48.8868 24.2107H29.9017L39.3492 32.1905H39.3545ZM27.9518 25.4294V42.9414H48.8868L27.9518 25.4294Z" fill="white"/>
</svg>
