<svg width="231" height="67" viewBox="0 0 231 67" fill="none" xmlns="http://www.w3.org/2000/svg">
<path d="M76.5261 12.6436V20.3889H79.7785V15.5292H87.3458V39.7791H83.2628V42.8049H94.8592V39.7791H90.7816V15.5292H98.3435V20.3889H101.601V12.6436H76.5261Z" fill="white"/>
<path d="M106.957 22.9131C100.906 22.9131 96.9143 27.5408 96.9143 33.0424C96.9143 38.5439 100.857 43.1717 106.957 43.1717C113.058 43.1717 117 38.5871 117 33.0424C117 27.4977 113.014 22.9131 106.957 22.9131ZM106.957 40.4209C102.971 40.4209 100.221 37.3951 100.221 33.0424C100.221 28.6897 102.971 25.6639 106.957 25.6639C110.943 25.6639 113.694 28.7328 113.694 33.0424C113.694 37.3519 110.943 40.4209 106.957 40.4209Z" fill="white"/>
<path d="M130.058 22.9131C127.124 22.9131 125.15 24.2399 123.505 26.0738V23.2799H117.318V26.0738H120.436V51.78H117.318V54.5307H127.356V51.78H123.602V40.9225C125.204 42.2979 127.356 43.1717 129.654 43.1717C135.473 43.1717 139.281 38.4468 139.281 32.9507C139.281 26.9475 135.204 22.9131 130.069 22.9131M129.459 40.3778C126.935 40.3778 125.058 39.4608 123.591 38.2203V28.5926C125.193 26.9422 127.075 25.707 129.594 25.707C133.262 25.707 136.013 28.5926 135.964 32.9938C135.921 37.2548 133.262 40.3778 129.454 40.3778" fill="white"/>
<path d="M156.784 28.1389V31.0245H165.128V37.443C162.512 39.2768 159.626 40.3286 156.19 40.3286C149.955 40.3286 144.637 35.3772 144.637 27.9501C144.637 20.5231 149.54 15.2103 156.692 15.2103C160.079 15.2103 162.695 16.4886 163.844 17.7291C163.385 18.0959 163.067 18.6946 163.067 19.4713C163.067 20.8467 164.119 21.9038 165.543 21.9038C166.967 21.9038 168.11 20.7604 168.11 19.0614C168.11 15.8522 163.574 12.0928 156.789 12.0928C148.445 12.0928 141.153 18.4141 141.153 27.9555C141.153 37.4969 148.213 43.3598 155.824 43.3598C159.626 43.3598 162.609 42.1678 165.225 40.1991V42.8097H168.477V28.1443H156.789L156.784 28.1389Z" fill="white"/>
<path d="M190.451 40.0541V23.2798H184.081V26.0737H187.285V36.8017C185.451 38.6841 183.299 40.2375 180.872 40.2375C179.265 40.2375 178.256 39.7359 177.663 38.587C177.296 37.9452 177.112 37.0714 177.112 35.9711V23.2744H170.834V26.0683H173.952V36.5698C173.952 38.1286 174.27 39.4985 174.869 40.5557C175.829 42.2062 177.528 43.1716 180.095 43.1716C182.889 43.1716 185.548 41.3378 187.382 39.1857V42.8049H193.574V40.0541H190.456H190.451Z" fill="white"/>
<path d="M227.808 40.0542V29.5096C227.808 28.0857 227.576 26.8074 227.123 25.7502C226.254 23.9595 224.598 22.9077 221.804 22.9077C219.237 22.9077 216.713 24.6013 214.609 26.7534C214.474 26.2033 214.291 25.7017 214.016 25.2378C213.142 23.7707 211.583 22.9023 209.156 22.9023C206.314 22.9023 203.746 24.7793 202.047 26.8883V23.2691H195.904V26.063H199.022V40.0434H195.904V42.7942H205.208V40.0434H202.182V29.2723C203.968 27.3899 205.985 25.8365 208.369 25.8365C209.976 25.8365 210.985 26.3867 211.486 27.6218C211.713 28.2636 211.853 29.0457 211.853 30.0975V40.0488H208.736V42.7996H218.04V40.0488H215.014V29.186C216.896 27.2604 218.865 25.8419 221.2 25.8419C222.759 25.8419 223.768 26.392 224.275 27.6272C224.501 28.269 224.641 29.0511 224.641 30.1029V40.0542H221.616V42.805H230.92V40.0542H227.802H227.808Z" fill="white"/>
<path d="M34.2076 0.286133C15.826 0.286133 0.92334 15.1888 0.92334 33.5704C0.92334 51.952 15.826 66.8547 34.2076 66.8547C52.5892 66.8547 67.4919 51.952 67.4919 33.5704C67.4919 15.1888 52.5892 0.286133 34.2076 0.286133ZM51.5806 48.8722C51.5806 53.295 47.9938 56.8872 43.5656 56.8872C41.1384 56.8872 38.9648 55.8085 37.4923 54.0987C36.4406 54.3792 35.3403 54.5302 34.2022 54.5302C33.0641 54.5302 31.9638 54.3792 30.9121 54.0987C29.445 55.8031 27.2714 56.8872 24.8388 56.8872C20.416 56.8872 16.8238 53.3004 16.8238 48.8722C16.8238 45.6792 18.69 42.923 21.3923 41.6339C18.7602 40.922 16.8238 38.5218 16.8238 35.6685C16.8238 32.2544 19.5908 29.4874 23.005 29.4874C23.9219 29.4874 24.7903 29.687 25.5723 30.0484C24.1916 28.2307 23.3718 25.9653 23.3718 23.5058C23.3718 22.5134 23.5066 21.5587 23.7547 20.6472C21.8291 20.1672 20.3998 18.4358 20.3998 16.3646C20.3998 13.9213 22.3793 11.9418 24.8172 11.9418C26.4731 11.9418 27.9078 12.8534 28.6683 14.1964C30.2864 13.2363 32.1742 12.6808 34.1914 12.6808C36.2086 12.6808 38.1288 13.2417 39.7577 14.218C40.5128 12.8588 41.9583 11.9418 43.6249 11.9418C46.0682 11.9418 48.0424 13.9213 48.0424 16.3646C48.0424 18.4574 46.586 20.2049 44.6335 20.6634C44.8816 21.5695 45.0165 22.5242 45.0165 23.5112C45.0165 25.9707 44.1966 28.2361 42.8159 30.0537C43.5979 29.6978 44.4663 29.4928 45.3833 29.4928C48.7974 29.4928 51.5644 32.2598 51.5644 35.6739C51.5644 38.5272 49.6281 40.9328 46.996 41.6393C49.6982 42.9284 51.5644 45.6846 51.5644 48.8776" fill="white"/>
</svg>
